<svg width="122" height="120" viewBox="0 0 122 120" fill="none" xmlns="http://www.w3.org/2000/svg">
<g id="Capa_1" clip-path="url(#clip0_139_23)">
<path id="Vector" d="M65.715 75.8999C72.0973 75.8414 80.6144 72.4083 87.7991 65.7007C91.0406 62.6749 90.8344 57.9667 87.3721 55.1725C83.8706 52.3465 78.9188 52.4075 75.0394 55.3236C70.3772 58.8274 65.0966 60.2025 59.3621 59.3662C47.3533 57.6156 39.4864 47.2165 41.0986 35.04C42.166 26.9768 46.6785 21.1421 54.2484 18.0626C61.7399 15.0148 68.8657 16.1266 75.3437 21.0397C78.6367 23.5388 82.2241 23.8997 85.9269 22.1222C90.1891 20.0766 91.5755 15.2757 88.9818 11.7402C88.3169 10.8332 87.4678 10.0384 86.609 9.29958C74.7523 -0.933682 57.9684 -3.20367 44.1216 4.91076C29.6565 13.3885 23.4313 26.4038 25.1489 42.9301C27.0899 61.5972 43.3536 75.895 65.7125 75.9023L65.715 75.8999Z" fill="white"/>
<path id="Vector_2" d="M73.4812 24.0872C70.8826 22.2244 68.1834 20.4713 64.9174 20.1422C58.2259 19.4692 52.7123 21.9001 48.5433 27.0448C42.8211 34.1083 43.5719 44.3928 50.1162 50.7468C53.9956 54.5139 58.6161 56.4133 64.0881 55.8769C67.6387 55.5306 70.7133 53.936 73.5646 51.905C74.9829 50.8956 76.4723 50.0739 78.1973 49.8081C84.3932 48.8475 89.3989 50.859 93.2955 55.8769C93.7127 55.5989 93.8304 55.1478 94.0218 54.7553C97.1578 48.2769 98.1859 41.406 97.7958 34.2937C97.5528 29.8878 96.6916 25.6135 94.5715 21.6685C93.8746 20.373 93.0771 20.2893 92.179 21.4174C87.5806 27.2008 79.4439 28.359 73.4812 24.0872Z" fill="white"/>
<path id="Vector_3" d="M9.98452 100.687C10.8409 100.409 11.3758 99.8116 11.4004 98.9071C11.4249 97.9366 10.8532 97.3051 9.95998 97.0223C9.46677 96.8663 8.91957 96.8321 8.39446 96.8175C7.33442 96.7882 6.27193 96.7541 5.2168 96.8224C4.16167 96.8906 4.16658 96.2713 4.14695 95.5179C4.12732 94.7572 4.33835 94.411 5.17509 94.4475C6.47805 94.5036 7.78347 94.4865 9.08643 94.4475C10.5489 94.4036 11.4126 93.7063 11.4126 92.6457C11.4126 91.5802 10.5342 90.8877 9.08152 90.8585C7.73685 90.8316 6.39217 90.8438 5.04504 90.8463C3.77888 90.8463 4.22547 89.8929 4.17149 89.259C4.11751 88.6202 4.02671 87.9253 5.08184 87.9618C6.5075 88.0106 7.9356 87.9935 9.36126 87.9618C10.7427 87.9326 11.5329 87.2572 11.5353 86.1771C11.5378 85.1018 10.7378 84.4142 9.36371 84.3996C7.03997 84.3752 4.71623 84.3728 2.39249 84.3996C0.74109 84.4191 0.0245831 85.1481 0.00740655 86.7964C-0.0122238 88.7006 0.00249897 90.6024 0.00249897 92.5067C0.00249897 94.4914 -0.0171314 96.4761 0.00986034 98.4609C0.0319445 100.077 0.802435 100.843 2.42194 100.863C4.58127 100.884 6.74306 100.875 8.9024 100.86C9.2631 100.858 9.63853 100.802 9.97961 100.692L9.98452 100.687Z" fill="white"/>
<path id="Vector_4" d="M42.5561 89.3956C43.9376 90.2587 45.2872 90.1392 46.038 89.0883C46.7791 88.0496 46.4184 86.9963 44.9584 85.9528C42.0703 83.8876 38.3528 83.8925 35.4769 85.965C32.6011 88.0375 31.4036 91.8509 32.5496 95.2912C33.6489 98.5926 36.7799 100.863 40.5538 100.858C42.296 100.775 44.1388 100.138 45.67 98.7096C46.254 98.1659 46.5165 97.5246 46.2662 96.7395C46.0061 95.9178 45.3878 95.5009 44.5707 95.3448C43.7953 95.1961 43.1499 95.496 42.507 95.8983C40.5784 97.1004 38.5245 96.7907 37.1406 95.1278C35.9039 93.6429 35.9554 91.4632 37.2584 89.9978C38.6423 88.4398 40.6691 88.2081 42.561 89.3931L42.5561 89.3956Z" fill="white"/>
<path id="Vector_5" d="M75.7755 98.9995C75.7485 98.0243 74.8872 97.2977 73.6407 97.2611C72.5414 97.2294 71.4372 97.2074 70.3404 97.2684C69.4276 97.3196 69.138 96.9856 69.1503 96.0859C69.1945 92.9259 69.1748 89.766 69.165 86.606C69.1601 85.2406 68.3675 84.4043 67.121 84.4019C65.8794 84.4019 65.0942 85.2309 65.0819 86.6133C65.0647 88.5981 65.077 90.5828 65.077 92.5675C65.077 94.5522 65.0672 96.5369 65.0795 98.5217C65.0893 100.046 65.7739 100.816 67.2633 100.848C69.3834 100.894 71.5035 100.887 73.6236 100.848C74.9142 100.826 75.805 100.009 75.778 98.9947L75.7755 98.9995Z" fill="white"/>
<path id="Vector_6" d="M23.8827 99.0506C23.8827 98.0387 22.9871 97.2902 21.6719 97.2585C20.5726 97.2317 19.4708 97.2122 18.374 97.2658C17.5151 97.3097 17.2403 96.983 17.2501 96.1442C17.2869 93.1086 17.2673 90.0755 17.2575 87.0399C17.2575 86.6034 17.3606 86.145 17.1005 85.7378C17.1103 85.6745 17.0955 85.6184 17.0563 85.5672C16.5655 84.4968 15.6723 84.2286 14.627 84.4943C13.5106 84.7772 13.1499 85.6159 13.1572 86.7156C13.1793 90.6411 13.1572 94.5667 13.1695 98.4922C13.1744 100.082 13.8713 100.828 15.4417 100.855C17.5176 100.891 19.596 100.887 21.6719 100.855C22.965 100.835 23.8803 100.045 23.8803 99.053L23.8827 99.0506Z" fill="white"/>
<path id="Vector_7" d="M77.7336 98.5436C77.7459 100.089 78.4109 100.823 79.9249 100.853C82.0449 100.894 84.165 100.889 86.2826 100.853C87.5463 100.831 88.3585 100.102 88.3806 99.0922C88.4052 98.0291 87.5709 97.2952 86.2385 97.2587C85.1392 97.2294 84.0325 97.1977 82.9381 97.2708C81.9885 97.3318 81.7578 96.9344 81.7677 96.0688C81.8045 92.9503 81.7873 89.8318 81.7775 86.7133C81.7726 85.1943 81.061 84.4043 79.7384 84.4043C78.4501 84.4043 77.7434 85.2187 77.7336 86.7572C77.7214 88.7005 77.7312 90.6462 77.7312 92.5894C77.7312 94.5742 77.7189 96.5589 77.7361 98.5436H77.7336Z" fill="white"/>
<path id="Vector_8" d="M18.3053 117.63C16.4944 119.222 14.4258 119.256 12.3622 118.354C10.4384 117.51 10.1415 115.711 10.1587 113.712C10.1047 111.903 10.539 110.135 12.453 109.24C14.4896 108.289 16.4968 108.438 18.2684 109.976C18.6242 110.284 19.0046 110.632 19.4021 110.135C19.7432 109.711 19.3432 109.381 19.0561 109.108C18.823 108.886 18.558 108.682 18.2758 108.53C15.9815 107.289 13.6357 107.311 11.3708 108.511C9.28021 109.618 8.83853 111.659 8.77228 113.802C8.7551 114.363 8.85816 114.931 8.94895 115.489C9.28021 117.549 10.3721 118.998 12.4333 119.602C14.8405 120.307 17.1127 120.129 19.1101 118.464C19.4144 118.21 19.7653 117.854 19.353 117.442C18.9629 117.05 18.6292 117.35 18.3053 117.635V117.63Z" fill="white"/>
<path id="Vector_9" d="M83.3675 108.477C83.4043 108.055 83.0681 107.931 82.7197 107.931C79.9911 107.923 77.2649 107.923 74.5363 107.931C74.1952 107.931 73.8468 108.043 73.8811 108.472C73.913 108.882 74.2713 108.95 74.605 108.962C75.1326 108.982 75.6626 108.977 76.1926 108.977C77.3982 108.978 78.0019 109.558 78.0035 110.715C78.0035 111.929 78.0035 113.141 78.0035 114.356H78.0084C78.0084 115.892 78.0084 117.43 78.0084 118.966C78.0084 119.42 78.1483 119.805 78.6783 119.781C79.12 119.761 79.2721 119.417 79.2746 119.008C79.2746 118.725 79.2819 118.442 79.2819 118.159C79.2819 115.448 79.3065 112.739 79.2697 110.028C79.2598 109.24 79.5249 108.926 80.3223 108.967C81.0928 109.008 81.8682 108.974 82.6412 108.96C82.9798 108.952 83.3331 108.879 83.3675 108.475V108.477Z" fill="white"/>
<path id="Vector_10" d="M111.35 115.621C110.44 115.272 109.505 114.977 108.6 114.614C108.121 114.421 107.775 114.058 107.859 113.485C107.945 112.905 108.423 112.702 108.911 112.619C109.817 112.466 110.7 112.536 111.49 113.083C111.827 113.314 112.249 113.631 112.56 113.19C112.938 112.653 112.357 112.397 112.023 112.168C111.297 111.666 110.455 111.517 109.77 111.542C107.861 111.549 106.801 112.188 106.629 113.324C106.448 114.524 107.135 115.316 108.872 115.904C109.567 116.138 110.268 116.352 110.946 116.625C111.407 116.811 111.824 117.098 111.785 117.693C111.743 118.33 111.279 118.598 110.747 118.734C109.547 119.042 108.403 118.9 107.358 118.196C107.015 117.964 106.605 117.666 106.306 118.142C106.006 118.617 106.49 118.886 106.813 119.083C108.121 119.883 109.532 120.127 111.036 119.751C112.111 119.483 112.941 118.944 113.019 117.749C113.095 116.591 112.325 115.996 111.348 115.623L111.35 115.621Z" fill="white"/>
<path id="Vector_11" d="M32.7066 111.668C32.1177 111.695 32.098 112.219 32.0956 112.678C32.0907 114.012 32.1103 115.345 32.0809 116.679C32.0441 118.278 31.2957 118.915 29.5584 118.886C27.9143 118.856 27.2199 118.203 27.2027 116.623C27.188 115.289 27.2175 113.956 27.2027 112.622C27.1978 112.088 27.1929 111.49 26.3439 111.727C26.0863 111.895 25.9807 112.141 25.9832 112.441C26.0004 114.077 26.0028 115.716 26.0445 117.352C26.0593 117.918 26.2384 118.454 26.6629 118.871C27.7597 120.061 29.1878 120.061 30.6135 119.868C32.4735 119.617 33.2562 118.727 33.3102 116.879C33.3519 115.465 33.3298 114.051 33.3298 112.634C33.3298 112.183 33.3421 111.642 32.709 111.668H32.7066Z" fill="white"/>
<path id="Vector_12" d="M23.9171 118.878C22.992 118.691 22.9871 118.01 22.992 117.293C23.0018 115.84 22.9944 114.387 22.992 112.934C22.992 111.359 22.992 109.784 22.9871 108.211C22.9871 107.804 22.9944 107.314 22.4448 107.292C21.8412 107.267 21.77 107.765 21.7676 108.231C21.7602 109.603 21.7602 110.976 21.7626 112.349C21.7626 114.165 21.7307 115.984 21.7872 117.798C21.8264 119.086 22.5479 119.827 23.5907 119.832C23.895 119.832 24.1845 119.783 24.3097 119.488C24.4569 119.139 24.2091 118.937 23.9146 118.878H23.9171Z" fill="white"/>
<path id="Vector_13" d="M103.503 111.664C103.032 111.686 102.951 112.068 102.949 112.456C102.946 113.546 102.949 114.636 102.949 115.726C102.949 116.816 102.949 117.906 102.949 118.996C102.949 119.386 103.035 119.764 103.508 119.781C103.965 119.795 104.144 119.447 104.146 119.052C104.158 116.833 104.158 114.612 104.141 112.39C104.139 112.005 103.965 111.639 103.503 111.664Z" fill="white"/>
<path id="Vector_14" d="M100.289 113.544C99.6411 111.703 97.1579 110.896 95.1752 111.895C94.7262 112.122 94.4612 112.546 93.8796 111.842C93.3692 111.222 92.957 111.868 92.9496 112.478C92.9251 114.626 92.9398 116.774 92.9374 118.922C92.9374 119.364 93.0404 119.795 93.568 119.778C94.0833 119.761 94.1716 119.322 94.1716 118.883C94.1716 117.545 94.152 116.208 94.1863 114.87C94.228 113.278 95.2194 112.415 96.9002 112.441C98.4976 112.468 99.251 113.239 99.2608 114.877C99.2681 116.094 99.251 117.308 99.2632 118.525C99.2681 118.915 99.1528 119.349 99.5503 119.646C100.137 119.983 100.439 119.627 100.434 119.144C100.417 117.276 100.664 115.399 100.286 113.541L100.289 113.544Z" fill="white"/>
<path id="Vector_15" d="M103.525 108.623C103.096 108.643 102.821 108.86 102.843 109.284C102.86 109.632 103.103 109.869 103.476 109.881C103.891 109.896 104.198 109.701 104.217 109.274C104.239 108.838 103.938 108.65 103.525 108.623Z" fill="white"/>
<path id="Vector_16" d="M113.814 84.3921C109.304 84.3775 105.628 88.0958 105.641 92.6626C105.655 97.1636 109.321 100.855 113.775 100.858C118.265 100.858 122.047 97.0514 121.997 92.5797C121.946 88.0934 118.263 84.4068 113.814 84.3921ZM113.726 96.6077C111.51 96.5711 109.827 94.8473 109.832 92.6187C109.837 90.3463 111.596 88.6176 113.868 88.6542C116.084 88.6883 117.765 90.4121 117.76 92.6358C117.752 94.9058 115.988 96.6418 113.726 96.6052V96.6077Z" fill="white"/>
<path id="Vector_17" d="M63.1482 92.675C63.1703 88.1545 59.578 84.4508 55.1194 84.3923C50.5873 84.3338 46.8943 87.9911 46.8649 92.5677C46.8379 97.1467 50.4867 100.858 55.0139 100.855C59.4725 100.855 63.1262 97.1784 63.1482 92.6725V92.675ZM51.0412 92.5336C51.0805 90.3221 52.8104 88.6421 55.036 88.6543C57.3131 88.669 58.9989 90.4172 58.9572 92.7262C58.9179 94.9523 57.1954 96.6249 54.9649 96.6078C52.7074 96.5908 50.9995 94.8157 51.0388 92.5336H51.0412Z" fill="white"/>
<path id="Vector_18" d="M99.6288 86.1062C99.2043 85.1139 98.6104 84.4458 97.4891 84.4263C96.3112 84.4044 95.6683 85.0822 95.2242 86.1184C93.536 90.0659 91.8012 93.9915 90.0909 97.9292C89.5658 99.1361 89.8627 100.087 90.8957 100.602C92.0294 101.167 93.3422 100.76 93.9188 99.6311C94.2132 99.0557 94.4365 98.4437 94.6966 97.8512C94.8267 97.5562 94.9396 97.1563 95.2978 97.1465C96.721 97.11 98.1786 96.9515 99.5552 97.2051C100.394 97.3587 100.397 98.5778 100.785 99.3093C100.976 99.6701 101.133 100.043 101.459 100.307C102.188 100.899 102.995 101.023 103.857 100.641C104.583 100.319 105.015 99.7725 105.076 98.8192C104.976 98.5242 104.858 98.095 104.684 97.6903C103 93.8306 101.288 89.983 99.6288 86.1111V86.1062ZM98.608 94.2036C97.8031 94.2719 96.9934 94.3475 96.1959 94.1524C95.9407 94.089 95.9775 93.8598 96.0634 93.6599C96.4732 92.7138 96.883 91.7678 97.4081 90.5536C97.9504 91.7605 98.37 92.6992 98.7896 93.6355C98.8067 93.6721 98.8141 93.7111 98.8288 93.7501C98.9172 93.9817 98.8436 94.1841 98.6055 94.2036H98.608Z" fill="white"/>
<path id="Vector_19" d="M40.3698 111.547C39.1919 111.427 38.1466 111.761 36.9933 112.495C36.9933 110.898 36.9933 109.498 36.9933 108.099C36.9933 107.711 36.9295 107.314 36.4682 107.275C35.9382 107.231 35.7738 107.633 35.7738 108.075C35.7885 111.066 35.7934 114.058 35.8597 117.047C35.8793 117.979 36.3406 118.781 37.1651 119.264C38.6742 120.149 40.2692 120.207 41.842 119.463C43.2726 118.786 43.6456 117.457 43.7241 116.028C43.756 115.47 43.6946 114.894 43.5842 114.343C43.2407 112.632 42.134 111.725 40.3722 111.544L40.3698 111.547ZM39.2974 118.915C37.9282 118.795 37.1676 118.054 37.0252 116.679C36.9933 116.36 36.9933 116.033 36.9909 115.711C36.9713 113.57 37.8448 112.519 39.6606 112.495C41.5206 112.471 42.5144 113.619 42.5046 115.779C42.4947 118.003 41.3783 119.093 39.2974 118.912V118.915Z" fill="white"/>
<path id="Vector_20" d="M57.3279 107.287C56.609 107.251 56.685 107.872 56.6826 108.348C56.6728 109.667 56.6801 110.988 56.6801 112.525C56.2851 112.288 56.1501 112.205 56.0102 112.125C53.1074 110.476 50.1923 111.993 49.9616 115.292C49.9224 115.85 49.9788 116.426 50.0819 116.979C50.4573 119.008 52.0474 120.11 54.3122 119.946C56.5721 119.786 57.8506 118.596 57.8947 116.45C57.9512 113.741 57.9095 111.03 57.9119 108.321C57.9119 107.863 57.9119 107.319 57.3279 107.29V107.287ZM54.0055 118.927C52.121 118.93 51.1149 117.779 51.1395 115.653C51.1615 113.617 52.2118 112.468 54.0227 112.5C55.809 112.529 56.6826 113.549 56.6801 115.604C56.6777 118.037 55.9636 118.927 54.0055 118.93V118.927Z" fill="white"/>
<path id="Vector_21" d="M66.3504 112.105C63.666 110.391 60.2479 112.039 59.9583 115.17C59.6148 118.883 62.6526 120.992 66.2719 119.534C66.7676 119.334 67.6289 119.134 67.3933 118.493C67.0841 117.652 66.4559 118.41 65.9726 118.547C65.737 118.613 65.5211 118.737 65.2855 118.8C63.4452 119.283 61.7177 118.464 61.2883 116.945C61.1116 116.321 61.2539 116.009 61.9434 116.018C62.7581 116.03 63.5752 116.021 64.3923 116.021C64.3923 116.016 64.3923 116.011 64.3923 116.006C65.2094 116.006 66.0241 116.006 66.8412 116.006C67.4252 116.006 67.7663 115.743 67.7859 115.141C67.8301 113.885 67.4497 112.805 66.3504 112.103V112.105ZM65.5162 115.053C64.9469 115.07 64.3776 115.055 63.8059 115.058C63.3176 115.058 62.8293 115.065 62.3409 115.058C61.1312 115.038 60.9644 114.746 61.5876 113.724C62.1864 112.744 63.1286 112.466 64.2083 112.505C65.1137 112.539 65.8867 112.824 66.3185 113.692C66.7897 114.641 66.5688 115.021 65.5137 115.053H65.5162Z" fill="white"/>
<path id="Vector_22" d="M88.6334 111.732C85.5588 110.737 83.0878 112.495 83.0706 115.689C83.0559 119.066 85.7575 120.824 89.156 119.617C89.7253 119.415 90.7191 119.208 90.4295 118.471C90.0983 117.628 89.394 118.444 88.9082 118.632C87.004 119.366 84.9919 118.715 84.4496 117.138C84.2018 116.418 84.273 115.979 85.2152 116.006C86.7194 116.05 88.2285 115.994 89.7327 116.021C90.67 116.038 90.9424 115.558 90.8908 114.729C90.7951 113.246 89.9928 112.171 88.6309 111.73L88.6334 111.732ZM88.6702 115.065C88.1058 115.024 87.5341 115.058 86.9648 115.058C86.4372 115.058 85.9096 115.07 85.3821 115.055C84.3196 115.024 84.1135 114.636 84.6828 113.724C85.3134 112.71 86.2949 112.446 87.4187 112.515C88.3365 112.571 89.0799 112.919 89.4627 113.795C89.7989 114.563 89.7891 115.146 88.6726 115.068L88.6702 115.065Z" fill="white"/>
</g>
<defs>
<clipPath id="clip0_139_23">
<rect width="122" height="120" fill="white"/>
</clipPath>
</defs>
</svg>
