<svg width="218" height="112" viewBox="0 0 218 112" fill="none" xmlns="http://www.w3.org/2000/svg">
<g id="Capa_1" clip-path="url(#clip0_85_259)">
<path id="Vector" d="M137.798 60.3137C135.289 60.4103 132.929 60.547 130.569 60.5729C129.658 60.5824 129.259 60.8628 129.043 61.7653C128.221 65.1822 129.24 67.9911 131.946 69.346C132.255 69.5015 132.82 69.5298 133.074 69.3507C134.47 68.3563 135.12 68.3869 136.269 69.683C136.526 69.9728 136.742 70.3004 137.057 70.7175C136.416 71.012 135.861 71.283 135.296 71.5257C132.362 72.7935 130.289 74.8884 129.095 77.8458C128.49 79.3468 127.794 79.7498 126.234 79.123C124.75 78.5268 123.352 77.6832 121.99 76.8325C120.582 75.9559 120.596 75.897 119.418 77.0422C111.473 84.7879 99.9941 85.721 90.8897 79.3586C89.8546 78.6352 88.7745 77.973 87.7869 77.193C86.9773 76.5544 86.1773 76.5097 85.2395 76.7995C83.2833 77.4027 81.3105 77.9565 79.2475 78.5598C78.0415 74.2498 74.668 72.5131 70.8173 71.4009C69.8724 71.1275 69.5899 70.7033 69.8416 69.8197C70.0671 69.0303 70.2262 68.2173 70.5182 67.4538C70.8458 66.5937 71.4607 66.5795 72.0922 67.1592C72.4079 67.4491 72.7355 67.7813 72.9088 68.1584C73.4169 69.2659 74.1291 69.1481 75.0027 68.6391C77.9275 66.9307 79.0979 64.3103 79.1003 61.0466C79.1003 60.3255 78.6753 60.3279 78.1673 60.342C76.3084 60.3868 74.4496 60.4292 72.5907 60.4645C71.964 60.4763 71.3348 60.4645 70.4232 60.4645C73.5166 55.2615 72.5883 50.1621 70.3235 45.0698C70.4493 44.9873 70.5775 44.9072 70.7034 44.8247C71.3728 45.0604 72.0589 45.2536 72.707 45.5388C73.5 45.8899 74.2478 46.3399 75.036 46.7052C76.4414 47.3556 77.3221 46.8866 77.5714 45.3455C77.8136 43.8374 77.4005 42.4494 76.5648 41.2099C75.9998 40.3734 76.1612 39.928 76.9803 39.3224C83.6015 34.4163 90.1941 29.4701 96.7583 24.4909C97.905 23.6214 99.035 23.0959 100.526 23.1218C103.095 23.1642 105.666 22.9663 108.237 22.9733C108.887 22.9733 109.652 23.2231 110.167 23.6143C117.498 29.152 124.786 34.7415 132.112 40.2862C132.72 40.7457 132.772 41.1063 132.492 41.7472C132.036 42.7888 131.628 43.8562 131.305 44.9449C131.144 45.4916 131.115 46.1161 131.194 46.684C131.348 47.7962 131.996 48.145 133.05 47.7232C134.076 47.3132 135.068 46.8254 136.089 46.3989C137.551 45.7885 137.839 45.9865 137.796 47.5512C137.708 50.6452 137.582 53.7369 137.539 56.8309C137.525 57.9549 137.703 59.0813 137.803 60.3161L137.798 60.3137ZM85.1707 37.6965C87.3667 40.4158 88.086 43.4486 87.3144 46.7217C86.8752 48.5809 86.1417 50.3789 85.4484 52.1675C83.5682 57.0147 83.9291 61.4825 86.9844 65.882C92.148 73.3166 102.278 76.75 110.877 73.6748C115.708 71.9475 120.024 69.4521 122.687 64.9182C125.539 60.0639 126.021 55.073 123.207 49.9218C122.547 48.7153 122.191 47.1176 122.327 45.7603C122.562 43.4085 123.207 41.085 123.844 38.7922C124.121 37.7884 124.214 37.039 123.371 36.2779C122.676 35.6487 122.037 34.9253 121.498 34.1571C120.356 32.5264 119.131 31.8666 116.911 32.2908C113.132 33.0142 109.481 31.9279 105.998 30.3561C105.495 30.1299 104.69 30.0121 104.26 30.2548C100.27 32.5146 96.0342 32.7927 91.6257 32.0292C91.2173 31.9585 90.6096 32.0433 90.3461 32.3073C88.594 34.0534 86.9109 35.8679 85.1707 37.6965Z" fill="#FBFFFC"/>
<path id="Vector_2" d="M95.8087 9.23978C97.0313 10.9788 98.0782 12.4823 99.1442 13.9692C99.7994 14.8835 102.598 15.4655 103.505 14.8293C103.783 14.6337 103.93 14.1907 104.042 13.8325C104.766 11.4737 105.461 9.10546 106.423 6.73486C106.869 8.74256 107.294 10.7526 107.767 12.7533C108.386 15.3736 107.816 14.9259 110.634 15.3006C112.66 15.5692 113.908 14.9707 114.967 13.3612C115.672 12.289 116.589 11.3535 117.638 10.0834V15.6211C120.886 15.7012 123.846 15.4396 126.082 12.8075C126.146 12.9111 126.21 13.0148 126.277 13.1185C125.37 14.3698 124.468 15.6211 123.559 16.87C122.609 18.1731 121.74 19.5469 120.662 20.7369C120.214 21.2318 119.321 21.5546 118.628 21.5617C114.2 21.6041 109.77 21.5358 105.34 21.5051C101.426 21.4769 97.5108 21.4321 93.5937 21.4344C92.7913 21.4344 92.2927 21.1682 91.8725 20.4754C90.4267 18.0883 88.9168 15.7389 87.4354 13.3754C87.2811 13.1279 87.1506 12.864 87.1743 12.4752C87.8295 13.0761 88.423 13.7689 89.1566 14.2496C89.8047 14.6761 90.6072 14.8717 91.3479 15.1545C91.4499 15.1945 91.5829 15.1568 91.7016 15.1545C93.9537 15.1388 95.2136 14.025 95.481 11.813C95.5736 11.0542 95.6757 10.2978 95.8134 9.24213L95.8087 9.23978Z" fill="#FBFFFC"/>
<path id="Vector_3" d="M73.9367 27.1202C78.6919 25.4566 83.402 23.701 88.5275 24.0097C89.6908 24.0804 90.79 24.4292 91.3977 25.7912C88.0717 27.7989 84.7457 29.8042 81.4173 31.8096C81.4482 31.892 81.479 31.9722 81.5099 32.0546C84.5273 30.8882 87.5423 29.7194 90.5597 28.5529C90.6072 28.6708 90.657 28.791 90.7045 28.9088C89.4534 29.4319 88.1714 29.8867 86.9606 30.49C83.5705 32.1725 80.216 33.9257 76.8378 35.6317C75.7885 36.1619 74.6252 36.572 73.5925 35.7731C72.4886 34.9177 72.4031 33.624 72.6358 32.3303C72.9135 30.7798 73.8489 29.7547 75.2496 29.0572C75.6579 28.8546 75.9404 28.4045 76.2823 28.0699C75.8787 27.8625 75.487 27.6269 75.0691 27.4548C74.7083 27.3064 74.3166 27.231 73.9367 27.1249V27.1202Z" fill="#FBFFFC"/>
<path id="Vector_4" d="M122.661 29.2436C125.669 30.3794 128.675 31.5152 131.683 32.651C131.718 32.5827 131.756 32.512 131.792 32.4436C130.339 31.567 128.888 30.6881 127.431 29.8162C125.807 28.843 124.171 27.8886 122.552 26.9083C121.638 26.3545 121.588 25.7866 122.533 25.3036C123.248 24.9407 124.093 24.7592 124.9 24.665C128.164 24.2785 131.239 25.3201 134.346 26.0411C135.944 26.4135 137.516 26.9012 139.068 27.5705C138.636 27.6954 138.178 27.7708 137.779 27.964C137.418 28.1384 137.124 28.4424 136.799 28.6898C137.133 28.9891 137.421 29.3849 137.81 29.5711C139.645 30.443 140.614 31.9417 140.562 33.9659C140.5 36.3506 138.871 37.3592 136.697 36.3035C133.219 34.6163 129.769 32.8654 126.286 31.1853C125.073 30.6009 123.794 30.1461 122.545 29.6347C122.583 29.5051 122.621 29.3755 122.659 29.2459L122.661 29.2436Z" fill="#FBFFFC"/>
<path id="Vector_5" d="M7.83667 89.7572C10.4267 95.4787 12.8934 100.932 15.4502 106.582C14.6668 106.582 14.021 106.615 13.3824 106.563C13.1592 106.547 12.9337 106.347 12.7485 106.184C12.6417 106.09 12.5895 105.911 12.561 105.76C12.0387 103.062 10.3484 102.541 7.73934 102.555C5.16114 102.567 3.48745 103.041 2.8156 105.708C2.54733 106.778 2.36928 106.733 0 106.488C2.57582 100.986 5.13265 95.5282 7.83667 89.7549V89.7572ZM5.25848 100.474H10.2392C9.42965 98.6317 8.66996 96.902 7.79869 94.9179C6.88469 96.9161 6.09888 98.6364 5.25848 100.474Z" fill="#FBFFFC"/>
<path id="Vector_6" d="M72.8163 106.54H70.5419C70.5419 104.947 70.5633 103.392 70.5324 101.836C70.5182 101.096 70.5514 100.298 70.2808 99.6378C70.0671 99.117 69.3953 98.4054 68.9751 98.436C68.3673 98.4808 67.5578 98.9945 67.2824 99.5341C66.9334 100.22 66.9809 101.129 66.9572 101.945C66.9144 103.429 66.9453 104.919 66.9453 106.495H64.6876C64.6876 104.337 64.6876 102.19 64.6876 100.043C64.6876 99.2584 64.633 98.469 64.7113 97.6914C64.7493 97.3073 65.0199 96.6428 65.2099 96.6333C65.8817 96.598 66.8123 96.129 67.0901 97.2837C69.2766 95.8816 70.2428 95.9523 71.9853 97.5241C72.9729 97.1046 73.8585 96.5414 74.8176 96.3623C76.6242 96.0254 78.1649 97.0363 78.3098 98.8531C78.5115 101.37 78.3596 103.915 78.3596 106.516H76.2705C76.2705 104.591 76.28 102.718 76.2681 100.844C76.2562 99.1194 75.8075 98.396 74.7535 98.3441C73.5926 98.2852 72.8875 99.11 72.8329 100.788C72.7712 102.661 72.8186 104.539 72.8186 106.535L72.8163 106.54Z" fill="#FBFFFC"/>
<path id="Vector_7" d="M124.898 89.2485H127.087V106.547H125.038C124.967 106.305 124.888 106.034 124.805 105.746C121.372 107.709 118.652 107.186 117.246 103.359C116.441 101.163 116.893 98.9524 118.806 97.3665C120.762 95.7453 122.799 96.0563 124.898 97.7106V89.2485ZM125.031 101.601C125.031 99.6452 123.829 98.3185 122.08 98.3397C120.435 98.361 119.202 99.7607 119.212 101.596C119.224 103.472 120.423 104.841 122.073 104.855C123.839 104.872 125.033 103.559 125.031 101.601Z" fill="#FBFFFC"/>
<path id="Vector_8" d="M170.301 92.8749C168.35 92.8749 166.619 92.9126 164.888 92.8584C164.038 92.8301 163.777 93.1411 163.827 93.9471C163.882 94.8354 163.839 95.7309 163.839 96.7371H170.059V98.9828C168.459 98.9828 166.852 99.0535 165.254 98.9592C164.1 98.8909 163.732 99.275 163.815 100.406C163.91 101.681 163.836 102.97 163.836 104.419C165.51 104.419 167.039 104.419 168.568 104.419C170.491 104.419 170.538 104.485 170.147 106.519H161.598V90.6716C164.307 90.6716 166.98 90.6551 169.653 90.7046C169.871 90.7093 170.192 91.1452 170.27 91.4351C170.377 91.831 170.296 92.2763 170.296 92.8749H170.301Z" fill="#FBFFFC"/>
<path id="Vector_9" d="M215.745 97.5668C215.944 95.8348 217.145 96.8363 218 96.5512V106.59C217.2 106.297 216.051 107.323 215.711 105.64C214.403 106.599 212.969 107.273 211.417 106.639C210.479 106.255 209.51 105.631 208.893 104.851C207.319 102.862 207.578 99.591 209.261 97.7742C210.911 95.9927 212.95 95.9102 215.747 97.5668H215.745ZM215.954 101.559C215.932 99.6028 214.717 98.2996 212.958 98.3421C211.324 98.3821 210.099 99.8125 210.137 101.641C210.175 103.526 211.381 104.862 213.041 104.858C214.797 104.851 215.975 103.517 215.954 101.559Z" fill="#FBFFFC"/>
<path id="Vector_10" d="M191.285 97.583C191.368 97.2154 191.435 96.9209 191.496 96.6475C192.93 96.5219 193.647 97.1338 193.647 98.4832C193.647 101.141 193.647 103.802 193.647 106.564C192.69 106.401 191.589 107.242 191.214 105.751C188.275 107.327 186.126 107.11 184.557 105.093C182.95 103.026 183.057 99.6897 184.792 97.7951C186.447 95.9877 188.569 95.8958 191.287 97.5854L191.285 97.583ZM191.503 101.563C191.484 99.6072 190.271 98.3018 188.512 98.3418C186.876 98.3795 185.654 99.8075 185.687 101.636C185.723 103.521 186.926 104.86 188.586 104.857C190.342 104.853 191.525 103.521 191.506 101.563H191.503Z" fill="#FBFFFC"/>
<path id="Vector_11" d="M59.2724 97.6372C59.3603 97.239 59.4244 96.9515 59.4861 96.6734C59.5763 96.6404 59.6499 96.5957 59.7235 96.5933C61.0071 96.5352 61.6488 97.1432 61.6488 98.4172C61.6488 100.691 61.6488 102.965 61.6488 105.242C61.6488 105.661 61.6488 106.083 61.6488 106.545H59.5217C59.4481 106.307 59.365 106.033 59.2772 105.743C55.7826 107.749 53.0501 107.143 51.6874 103.255C50.9182 101.059 51.4025 98.8414 53.3635 97.2955C55.3197 95.7544 57.321 96.082 59.2701 97.6396L59.2724 97.6372ZM59.5051 101.643C59.5241 99.6873 58.3371 98.3371 56.5969 98.3395C54.9422 98.3395 53.7006 99.7156 53.6863 101.554C53.6721 103.422 54.8662 104.817 56.5043 104.855C58.2777 104.895 59.4837 103.601 59.5027 101.643H59.5051Z" fill="#FBFFFC"/>
<path id="Vector_12" d="M90.6119 102.117H83.5634C83.5254 103.448 84.1166 104.323 85.2062 104.69C86.8443 105.242 88.0242 104.457 88.8504 102.954C89.5198 103.321 90.0896 103.635 90.657 103.946C89.5863 106.276 87.255 107.337 84.7314 106.691C82.3526 106.083 80.9211 103.969 81.0968 101.318C81.3389 97.6492 83.948 95.6415 87.35 96.5087C89.6172 97.086 90.854 99.129 90.6143 102.117H90.6119ZM83.7676 100.199H88.2735C87.8723 98.8416 87.2265 98.3349 86.0039 98.342C84.7931 98.3491 84.0833 98.9217 83.7676 100.199Z" fill="#FBFFFC"/>
<path id="Vector_13" d="M139.261 102.1H132.279C132.129 103.352 132.692 104.188 133.684 104.598C135.4 105.31 136.652 104.532 137.523 102.956C138.202 103.328 138.772 103.642 139.339 103.953C138.176 106.316 135.894 107.336 133.373 106.681C130.997 106.066 129.577 103.943 129.764 101.292C130.021 97.6655 132.563 95.6814 135.923 96.4897C138.275 97.0552 139.564 99.1501 139.261 102.098V102.1ZM136.929 100.246C136.559 98.8202 135.787 98.2523 134.467 98.3489C133.318 98.4337 132.625 99.0818 132.485 100.246H136.929Z" fill="#FBFFFC"/>
<path id="Vector_14" d="M198.856 97.3264C199.418 97.0248 199.848 96.7279 200.321 96.5535C202.761 95.6604 204.964 97.1309 205.076 99.8054C205.166 101.997 205.095 104.193 205.095 106.486H202.839C202.839 105.43 202.839 104.346 202.839 103.262C202.839 102.36 202.849 101.457 202.82 100.557C202.771 99.0089 202.308 98.4293 201.106 98.3421C199.763 98.2431 199.055 98.7945 198.839 100.317C198.692 101.358 198.73 102.426 198.711 103.484C198.692 104.459 198.706 105.437 198.706 106.5H196.444C196.444 104.217 196.444 101.952 196.444 99.6876C196.444 99.0207 196.384 98.3468 196.467 97.6893C196.517 97.3052 196.778 96.6454 196.973 96.636C197.645 96.603 198.583 96.1341 198.856 97.3264Z" fill="#FBFFFC"/>
<path id="Vector_15" d="M93.4133 96.5584C94.3795 96.7822 95.417 95.9504 95.7731 97.1852C96.6847 96.8859 97.5536 96.424 98.4534 96.3439C100.495 96.1625 101.936 97.5104 102.033 99.6995C102.133 101.929 102.055 104.165 102.055 106.491H99.8066C99.8066 104.877 99.8089 103.241 99.8066 101.608C99.8066 101.099 99.8018 100.588 99.7638 100.079C99.6902 99.1057 99.2392 98.4577 98.1851 98.3469C96.9839 98.222 96.1031 98.6533 95.9464 99.7514C95.7327 101.255 95.7446 102.791 95.6805 104.313C95.652 105.013 95.6758 105.716 95.6758 106.5H93.4798C93.456 106.13 93.4157 105.786 93.4157 105.44C93.4109 102.546 93.4133 99.6524 93.4133 96.556V96.5584Z" fill="#FBFFFC"/>
<path id="Vector_16" d="M42.6637 106.529H40.4558C40.4558 105.442 40.4582 104.358 40.4558 103.272C40.4511 102.292 40.4701 101.309 40.4249 100.331C40.3632 98.9879 39.8647 98.427 38.7346 98.3422C37.455 98.2456 36.7523 98.7381 36.5149 100.079C36.3582 100.958 36.3535 101.87 36.3321 102.768C36.3036 103.979 36.325 105.192 36.325 106.496H34.0625C34.0625 104.42 34.0625 102.353 34.0625 100.284C34.0625 99.4215 34.0103 98.5543 34.0863 97.6965C34.1195 97.3124 34.3925 96.6456 34.5825 96.6361C35.2543 96.6055 36.1897 96.1389 36.3986 96.9967C37.6236 96.7964 38.8415 96.3722 40.019 96.4594C41.5953 96.5772 42.5212 97.6117 42.628 99.3319C42.7729 101.703 42.6637 104.09 42.6637 106.529Z" fill="#FBFFFC"/>
<path id="Vector_17" d="M24.6995 96.664C24.6995 98.6481 24.6686 100.566 24.7113 102.482C24.7351 103.493 24.9653 104.473 26.1619 104.77C27.6338 105.135 28.6593 104.346 28.7424 102.689C28.8208 101.122 28.7733 99.5506 28.7804 97.9789C28.7804 97.5571 28.7804 97.1353 28.7804 96.7252C28.9988 96.6545 29.1056 96.5909 29.2149 96.5862C31.0429 96.499 31.0619 96.5014 31.0381 98.2734C31.0144 100.038 31.05 101.813 30.8719 103.564C30.6606 105.644 28.9964 106.858 26.6675 106.841C24.3932 106.825 22.7005 105.529 22.5723 103.436C22.4346 101.219 22.5415 98.9851 22.5415 96.664H24.6971H24.6995Z" fill="#FBFFFC"/>
<path id="Vector_18" d="M175.339 106.528H173.261V89.293H175.339V106.528Z" fill="#FBFFFC"/>
<path id="Vector_19" d="M150.919 106.554H148.818V89.3027H150.919V106.554Z" fill="#FBFFFC"/>
<path id="Vector_20" d="M19.3697 112H17.3091V96.6641H19.3697V112Z" fill="#FBFFFC"/>
<path id="Vector_21" d="M48.0005 93.019V96.4782C48.6748 96.5419 49.2066 96.5937 49.7929 96.6479V98.4247C49.7265 98.4789 49.6719 98.5613 49.6101 98.5708C48.5402 98.6949 48.0045 99.2856 48.0029 100.343C48.0029 102.374 48.0029 104.405 48.0029 106.512H45.8188C45.8188 105.701 45.8188 104.86 45.8188 104.021C45.8188 102.647 45.8307 101.276 45.8141 99.9022C45.8069 99.3508 45.9969 98.7357 45.0995 98.5119C44.9452 98.4741 44.9523 96.7422 45.1114 96.7021C46.0135 96.4806 45.7927 95.8656 45.8164 95.3212C45.8449 94.6567 45.8402 93.9898 45.8568 93.3229C45.8568 93.2522 45.909 93.1816 45.9707 93.0166H48.0029L48.0005 93.019Z" fill="#FBFFFC"/>
<path id="Vector_22" d="M107.354 106.526H105.17C105.17 104.886 105.17 103.255 105.17 101.625C105.17 100.918 105.222 100.206 105.143 99.5086C105.108 99.2023 104.79 98.9313 104.623 98.632C104.443 98.3045 104.163 97.9604 104.161 97.6234C104.158 97.277 104.422 96.9189 104.6 96.5795C104.771 96.2543 105.113 95.9598 105.143 95.6322C105.222 94.7863 105.17 93.9285 105.17 93.0024H107.339V96.4947C108.023 96.5465 108.526 96.5843 109.115 96.629V98.46C107.941 98.7302 107.354 99.489 107.354 100.736C107.354 102.647 107.354 104.556 107.354 106.524V106.526Z" fill="#FBFFFC"/>
<path id="Vector_23" d="M180.578 106.552H178.404C178.404 105.126 178.404 103.729 178.404 102.331C178.404 100.882 178.475 99.4281 178.38 97.986C178.306 96.8619 178.658 96.3765 179.811 96.5674C180.039 96.6051 180.272 96.6051 180.581 96.6286V106.552H180.578Z" fill="#FBFFFC"/>
<path id="Vector_24" d="M108.598 1.7721C109.269 1.89699 109.849 1.97947 110.414 2.11615C111.416 2.3565 111.534 2.71469 110.889 3.45933C109.967 4.52444 109.329 4.61163 108.13 3.84343C107.802 3.6337 107.472 3.43105 107.138 3.22132C106.361 4.91326 105.367 5.23609 103.747 4.4184C102.995 4.03901 102.936 3.48996 103.52 3.05873C104.248 2.5191 105.12 2.16799 106.088 1.64957C106.413 -0.0140912 106.629 -0.17433 108.097 0.122583C109.191 0.34409 108.958 0.994472 108.595 1.7721H108.598Z" fill="#FBFFFC"/>
<path id="Vector_25" d="M156.14 90.0498C156.802 90.2925 157.384 90.5022 158.129 90.7756C157.144 92.7362 156.192 94.6331 155.209 96.589C154.67 96.3651 154.25 96.1907 153.733 95.9739C154.549 93.9639 155.326 92.0551 156.14 90.0498Z" fill="#FBFFFC"/>
<path id="Vector_26" d="M94.719 6.24244C94.8567 5.6439 94.6146 4.83092 95.7042 4.84742C96.6705 4.86155 96.8153 5.39176 96.6467 6.10812C97.3447 6.34376 97.924 6.53935 98.5032 6.73258C97.9952 8.30669 97.5465 8.39388 95.4763 7.36882C95.1368 8.39859 94.4175 8.75442 93.4157 8.30669C93.1047 8.16766 92.8863 7.82598 92.6251 7.57619L94.4436 6.10576C94.5362 6.15054 94.6264 6.19766 94.719 6.24244Z" fill="#FBFFFC"/>
<path id="Vector_27" d="M117.792 5.83927C117.994 5.43396 118.22 4.7388 119.145 5.2855C119.796 5.6696 119.974 6.07256 119.371 6.68052C119.867 7.08112 120.311 7.4393 120.757 7.8022C119.642 8.99927 119.305 8.93565 117.98 7.37096C116.596 8.17216 116.062 8.02606 115.079 6.33648C115.967 6.17388 116.75 6.03014 117.79 5.83927H117.792Z" fill="#FBFFFC"/>
<path id="Vector_28" d="M180.963 92.3754C180.92 93.2638 180.407 93.7398 179.555 93.8011C178.757 93.86 178.05 93.0918 178.112 92.2859C178.178 91.3975 178.753 90.9121 179.583 90.9333C180.424 90.9545 180.941 91.48 180.96 92.3754H180.963Z" fill="#FBFFFC"/>
<path id="Vector_29" d="M19.7638 92.3942C19.7092 93.2826 19.1917 93.7515 18.3394 93.7987C17.537 93.8458 16.8438 93.0729 16.9174 92.267C16.9981 91.381 17.5773 90.9002 18.4082 90.9332C19.2463 90.9662 19.7614 91.4964 19.7662 92.3942H19.7638Z" fill="#FBFFFC"/>
<path id="Vector_30" d="M127.008 11.2779C127.044 10.6039 126.866 9.81687 127.16 9.28431C127.69 8.32288 128.734 8.26632 130.011 8.43834C129.071 9.49403 128.245 10.4201 127.421 11.3486C127.284 11.325 127.146 11.3038 127.008 11.2802V11.2779Z" fill="#FBFFFC"/>
<path id="Vector_31" d="M84.1926 8.26183C85.0425 7.72927 85.8212 7.63265 86.4812 8.20056C87.2622 8.87215 87.2812 9.80059 87.0794 10.927C86.0467 9.97497 85.1494 9.1455 84.1926 8.26183Z" fill="#FBFFFC"/>
<path id="Vector_32" d="M117.315 66.9704V60.2993C116.261 59.9929 115.689 60.1532 115.777 61.3125C115.819 61.8899 115.784 62.4719 115.784 63.1034C115.428 63.1529 115.205 63.2071 114.979 63.2095C113.239 63.2377 113.082 62.8089 113.092 65.1889C113.096 66.0914 113.085 66.9939 113.092 67.8965C113.111 70.4485 112.634 71.0471 109.894 71.7116V63.4593C108.553 63.4593 107.38 63.4121 106.217 63.5017C106.003 63.5182 105.675 64.0908 105.67 64.4113C105.63 66.7253 105.687 69.0441 105.647 71.3581C105.64 71.787 105.393 72.5363 105.155 72.5787C104.336 72.7248 103.47 72.6541 102.629 72.5693C102.532 72.5599 102.447 71.9449 102.444 71.6079C102.425 69.5271 102.432 67.4464 102.425 65.368C102.422 64.0751 101.848 63.2574 100.704 62.9149H103.384C103.384 61.0203 103.292 59.2671 103.413 57.5304C103.52 55.9869 102.753 55.0114 101.651 54.1678C99.5146 52.5347 96.5898 53.5056 96.1744 56.1613C95.8562 58.1949 96.0201 60.304 96.0343 62.38C96.0343 62.5803 96.4569 62.8984 96.7228 62.9479C97.2142 63.0398 97.7341 62.9738 98.3513 62.9738V71.6809C95.9844 71.3275 94.9826 70.2176 94.9755 68.0119C94.9707 66.7559 94.9304 65.5 94.9565 64.244C94.9707 63.5135 94.7452 63.1081 93.9404 63.2142C93.8241 63.2283 93.703 63.2142 93.5843 63.2142C91.9747 63.2063 91.0552 64.0295 90.8257 65.6838C88.6748 63.6501 88.397 61.0957 87.8748 58.3835C88.6416 58.3835 89.2968 58.3245 89.9378 58.3976C90.961 58.5154 91.3147 58.1808 91.31 57.1133C91.2957 53.581 91.4097 50.0487 91.4239 46.5163C91.4263 45.7646 91.6115 45.2957 92.3403 44.954C94.6597 43.863 96.9151 42.6329 99.2654 41.6149C99.885 41.3463 100.837 41.45 101.497 41.721C103.527 42.5481 105.488 43.5378 107.712 44.5746C107.712 42.4774 107.717 40.6111 107.712 38.7424C107.706 36.7017 108.727 35.6711 110.777 35.6507C112.121 35.6366 113.469 35.6649 114.81 35.5942C115.796 35.5423 116.095 35.9052 116.092 36.8808C116.073 43.7499 116.14 50.6189 116.097 57.488C116.09 58.6403 116.482 58.9325 117.524 58.8453C118.31 58.7793 119.105 58.85 119.896 58.81C120.627 58.7723 120.857 59.1092 120.879 59.7879C120.94 61.8168 120.062 63.5135 118.991 65.1371C118.55 65.8063 118.027 66.4237 117.543 67.0646C117.467 67.034 117.391 67.0057 117.315 66.9751V66.9704ZM114.485 61.3408V54.3351C113.794 54.3351 113.177 54.4034 112.603 54.2809C112.479 54.2549 112.403 53.2181 112.477 53.1945C113.08 53.0107 113.723 52.9542 114.44 52.8481V49.6811C113.78 49.5868 113.241 49.575 112.766 49.3936C112.643 49.3464 112.631 48.5146 112.728 48.4816C113.265 48.2908 113.849 48.2342 114.426 48.1305V45.9508C112.973 45.9508 111.629 45.9932 110.29 45.9367C109.424 45.9013 109.099 46.2076 109.082 47.0725C108.994 51.505 108.883 55.9398 108.74 60.3699C108.702 61.4987 109.208 61.6024 110.184 61.3055C110.184 60.8766 110.108 60.4713 110.198 60.1084C110.438 59.1352 110.573 58.0771 111.071 57.2429C111.717 56.166 112.368 56.2956 112.719 57.4951C113.001 58.4636 113.139 59.4839 113.246 60.4925C113.327 61.2536 113.628 61.5623 114.488 61.3432L114.485 61.3408ZM100.037 44.5958C98.4344 44.6076 97.283 45.7552 97.2878 47.3411C97.2925 48.8186 98.5247 50.0369 100.001 50.018C101.606 49.9992 102.81 48.8351 102.81 47.3058C102.81 45.7081 101.658 44.584 100.037 44.5958ZM112.952 43.8323V38.9992H111.532C111.532 40.26 111.57 41.4594 111.52 42.6565C111.477 43.665 111.924 43.9949 112.952 43.8323ZM111.057 43.6226C111.057 42.6706 111.01 41.7021 111.069 40.7407C111.138 39.6473 110.656 39.2702 109.486 39.4211C109.486 40.4862 109.535 41.5277 109.471 42.5646C109.407 43.6085 109.759 44.0373 111.055 43.6226H111.057ZM113.441 41.2591H113.571C113.571 42.0391 113.533 42.8214 113.595 43.5943C113.614 43.8206 113.92 44.0232 114.096 44.2353C114.25 44.0091 114.521 43.7899 114.537 43.5519C114.637 42.1121 114.708 40.67 114.708 39.2302C114.708 38.9875 114.31 38.7447 114.096 38.502C113.878 38.7589 113.512 38.9922 113.472 39.275C113.379 39.9253 113.441 40.5969 113.441 41.2591Z" fill="#FBFFFC"/>
</g>
<defs>
<clipPath id="clip0_85_259">
<rect width="218" height="112" fill="white"/>
</clipPath>
</defs>
</svg>
