<svg width="153" height="138" viewBox="0 0 153 138" fill="none" xmlns="http://www.w3.org/2000/svg">
<g id="Capa_1" clip-path="url(#clip0_139_112)">
<path id="Vector" d="M113.116 31.2925C113.131 31.5544 113.153 31.7877 113.154 32.02C113.197 42.7054 113.238 53.3918 113.28 64.0772C113.3 69.2455 113.39 74.4149 113.326 79.5831C113.254 85.3534 111.595 90.7076 108.566 95.6162C104.21 102.673 98.0501 107.561 90.2524 110.438C85.6736 112.127 80.9353 112.809 76.0786 112.488C68.3849 111.978 61.586 109.218 55.7659 104.164C49.9901 99.149 46.3813 92.8637 44.7978 85.4238C44.3505 83.324 44.1467 81.1911 44.1456 79.0405C44.1434 63.5336 44.1357 48.0266 44.1301 32.5196C44.1301 31.703 44.5376 31.2947 45.3526 31.2947C67.2621 31.2947 89.1716 31.2947 111.08 31.2947H113.116V31.2925ZM69.3029 65.0953C69.1102 65.0843 68.9519 65.0755 68.8013 65.0667C68.7581 64.8344 68.7216 64.6429 68.6861 64.458H67.8169C67.808 64.5736 67.7958 64.6605 67.7958 64.7475C67.7992 66.5799 67.8069 68.4124 67.8036 70.2459C67.8036 70.4143 67.7671 70.7126 67.6929 70.7313C67.2765 70.8347 67.3895 71.1429 67.3895 71.3949C67.385 76.1604 67.3286 80.9269 67.4227 85.6913C67.4493 87.0615 67.2178 88.0135 65.7982 88.4196C65.6565 88.4603 65.4671 88.6617 65.4627 88.7938C65.4339 89.7369 65.4472 90.6823 65.4472 91.6321H75.9779C75.9779 91.4021 75.9779 91.2194 75.9779 91.0378C75.9779 89.0953 75.9347 87.1506 76.0022 85.2103C76.0244 84.5599 76.2159 83.8566 76.5304 83.2865C77.0819 82.2894 78.3032 81.978 79.5567 82.3577C80.6829 82.6977 81.2631 83.5188 81.2675 84.813C81.2742 86.4804 81.2664 88.1488 81.2642 89.8173C81.2642 90.416 81.2642 91.0158 81.2642 91.6398H91.8547C91.8547 91.1633 91.7915 90.7143 91.8668 90.2905C92.085 89.0623 91.6553 88.2589 90.4329 87.9078C90.0353 87.7934 89.9811 87.505 89.9844 87.1418C89.9977 85.7122 89.9899 84.2825 89.9899 82.8529C89.9899 78.9855 89.9899 75.1181 89.9899 71.2507C89.9899 71.1286 89.9634 71.0053 89.9501 70.8843C89.7851 70.8446 89.6467 70.8127 89.4529 70.7665V64.4393C88.7652 64.1796 88.6036 64.5054 88.6578 65.0601H87.979C87.9491 64.8366 87.9226 64.6462 87.8982 64.4657H87.1607C87.1474 64.6859 87.1364 64.8642 87.1253 65.0557H86.5938C86.5617 64.8399 86.5351 64.6617 86.5063 64.4669H85.5905V72.3568H84.9416C84.9317 72.1543 84.9195 71.9914 84.9162 71.8285C84.9051 71.1543 84.5744 70.8006 83.924 70.7676C83.893 70.7665 83.8631 70.7357 83.7612 70.6784V58.5645H82.4114C82.3926 58.9343 82.3749 59.27 82.3572 59.6067H81.4802C81.3307 59.1907 81.7171 58.5634 80.839 58.559C81.2675 57.6918 81.6374 56.8751 82.067 56.0904C82.9662 54.4484 84.079 52.9725 85.6824 51.9424C85.977 51.7531 86.3911 51.6871 86.7532 51.6772C87.2548 51.664 87.7598 51.7586 88.2636 51.807C87.999 51.4934 87.7111 51.2479 87.3899 51.0565C87.0024 50.8242 86.8418 50.5271 86.8529 50.0681C86.8651 49.574 86.7809 49.0776 86.7388 48.5824C86.4399 49.0259 86.2428 49.4738 86.0755 49.9328C85.8397 50.5788 85.4876 51.1082 84.9505 51.577C84.1244 52.299 83.3471 53.0903 82.6351 53.9256C81.3074 55.4818 80.5456 57.3627 79.735 59.2094C79.6763 59.3426 79.5999 59.4681 79.4936 59.6706C79.2068 59.2204 79.6896 58.4523 78.7849 58.526C78.7849 58.3554 78.8015 58.2277 78.7827 58.1045C78.6365 57.1844 78.9477 56.5769 79.9078 56.3348C80.1779 56.2665 80.581 56.0882 80.6286 55.8912C80.8003 55.1693 80.8479 54.4176 80.9431 53.6769C80.8767 53.6516 80.8091 53.6263 80.7427 53.6021C80.0982 54.3978 79.4537 55.1946 78.8314 55.9639C78.7174 54.8776 78.7927 53.8046 79.7228 52.9043C78.8026 53.6956 78.0641 53.1068 77.2911 52.693C77.8238 53.5448 78.4184 54.313 78.1449 55.3894C78.043 54.017 76.8382 53.9377 75.9701 53.459C76.3034 54.4539 76.3831 55.5721 77.5414 56.0717C77.9279 56.239 78.3265 56.4558 78.2744 57.0336C78.2346 57.4849 78.3099 57.946 78.321 58.4038C78.3221 58.4534 78.2246 58.4985 78.1903 58.5557C78.0995 58.7054 77.9877 58.8507 77.9423 59.0146C77.8935 59.1896 77.9112 59.3822 77.8935 59.675C77.775 59.5209 77.7319 59.4835 77.7119 59.4362C77.6477 59.2843 77.5857 59.1313 77.5359 58.975C76.4961 55.7449 74.9049 52.857 72.2982 50.592C72.1432 50.4577 72.0347 50.2475 71.9605 50.0516C71.6958 49.3517 71.4544 48.6418 71.1832 47.8769C71.1355 47.9617 69.4048 51.0807 69.3849 51.1159C69.7337 51.0983 70.0692 51.1214 70.387 51.0576C71.2219 50.8892 71.8486 51.1874 72.4743 51.7344C74.3689 53.3897 75.4009 55.5578 76.2813 57.8271C76.3699 58.0561 76.4285 58.2971 76.5083 58.5535C76.268 58.5733 76.0897 58.5876 75.8704 58.6052C75.845 58.9431 75.8217 59.2623 75.7985 59.5814H74.9868C74.9691 59.2469 74.9536 58.9464 74.9392 58.6614H73.5395C73.5296 58.8628 73.5152 59.0257 73.5152 59.1885C73.5141 62.7808 73.5152 66.373 73.5152 69.9664C73.5152 70.8402 73.5971 70.8556 72.7124 70.8435C72.6072 70.8424 72.502 70.8831 72.3403 70.9151V72.3898H71.6482V64.3876H70.9107C70.8864 64.633 70.8642 64.8587 70.8443 65.0689H70.1589C70.1378 64.8465 70.119 64.6561 70.1002 64.4591H69.3516C69.335 64.6683 69.3206 64.8465 69.3007 65.0997L69.3029 65.0953ZM56.2199 66.8617C56.2199 66.5194 56.2199 66.2641 56.2199 66.0098C56.2265 63.6843 56.1479 61.3567 56.6163 59.0554C57.8189 53.1497 60.9005 48.4536 65.8226 44.9527C67.8457 43.5143 70.0692 42.472 72.461 41.7809C72.6238 41.7336 72.8718 41.5685 72.8751 41.4518C72.9061 40.3424 72.894 39.2309 72.894 38.1369C72.791 38.1138 72.7533 38.0951 72.7201 38.1006C72.5751 38.1248 72.4311 38.1512 72.2883 38.1875C67.9487 39.2727 64.1273 41.3296 60.8363 44.332C57.6173 47.2683 55.2798 50.7967 53.7838 54.8864C52.404 58.6581 52.1394 62.564 52.2568 66.5227C52.2601 66.6383 52.455 66.8452 52.5635 66.8474C53.7572 66.8705 54.9509 66.8617 56.2221 66.8617H56.2199ZM84.6471 38.0643C84.5884 38.171 84.5552 38.2018 84.5552 38.2327C84.5485 39.1846 84.5707 40.1388 84.5297 41.0897C84.5109 41.5288 84.6825 41.6785 85.0767 41.8007C92.7505 44.1878 97.842 49.1932 100.348 56.7794C101.037 58.8628 101.309 61.0243 101.31 63.2177C101.31 64.3106 101.31 65.4023 101.31 66.5194H105.174C105.652 58.7824 103.616 51.9017 98.3768 46.1116C94.6584 42.001 90.0619 39.3189 84.6471 38.0643ZM72.6293 106.019C72.6515 105.895 72.6692 105.843 72.6703 105.789C72.6725 104.946 72.6559 104.103 72.6802 103.261C72.6902 102.925 72.5739 102.783 72.2561 102.688C67.9453 101.41 64.3122 99.0819 61.4055 95.6646C58.7778 92.5753 57.0581 89.0348 56.5322 85.0199C56.2498 82.8694 56.3107 80.6749 56.2188 78.5002C56.2099 78.2889 56.2177 78.0776 56.2177 77.8123C54.9365 77.8123 53.7417 77.8002 52.5491 77.8321C52.4428 77.8354 52.249 78.1238 52.2546 78.2735C52.3354 80.2842 52.2966 82.3125 52.5735 84.298C53.3187 89.6522 55.6175 94.3142 59.3016 98.2928C61.5727 100.745 64.2336 102.682 67.2444 104.137C68.9519 104.961 70.7314 105.595 72.6282 106.018L72.6293 106.019ZM84.2474 106.122C84.5087 106.08 84.6881 106.064 84.8619 106.023C87.6978 105.347 90.3487 104.235 92.8158 102.688C96.9838 100.076 100.16 96.5726 102.395 92.2121C104.655 87.8044 105.391 83.095 105.238 78.2041C105.228 77.8706 105.065 77.8112 104.785 77.8134C103.826 77.8211 102.866 77.8442 101.908 77.8079C101.409 77.7881 101.3 77.9587 101.296 78.4319C101.277 80.3359 101.371 82.2597 101.133 84.1406C100.175 91.7037 96.233 97.3188 89.5359 100.975C88.0521 101.785 86.3668 102.233 84.7811 102.861C84.5851 102.939 84.2761 103.098 84.2695 103.231C84.2252 104.176 84.2462 105.124 84.2462 106.123L84.2474 106.122ZM77.8105 97.6181C77.056 97.5154 76.5943 97.7604 76.4252 98.3533H75.4419C75.4164 98.0814 75.3932 97.8327 75.3666 97.5466H74.0755C74.06 97.6863 74.0334 97.8118 74.0334 97.9362C74.029 100.171 74.0378 102.407 74.0168 104.642C74.0135 104.971 73.9659 105.379 73.7699 105.609C73.2217 106.254 73.3192 106.951 73.3978 107.69H77.3089C77.3089 107.47 77.3089 107.29 77.3089 107.109C77.3089 106.139 77.2945 105.167 77.3133 104.196C77.331 103.289 78.2235 102.748 78.9787 103.181C79.3951 103.42 79.5722 103.807 79.5689 104.288C79.5612 105.418 79.5667 106.549 79.5667 107.73C80.8789 107.73 82.1279 107.733 83.377 107.724C83.4612 107.724 83.6217 107.617 83.6184 107.569C83.5841 107.071 83.6693 106.486 83.4346 106.097C83.1234 105.582 82.9418 105.107 82.9784 104.518C83.0083 104.024 82.985 103.528 82.985 103.034C82.985 101.384 82.9872 99.7356 82.985 98.0858C82.985 97.8547 83.0448 97.5741 82.6705 97.5675C82.3095 97.5609 81.9485 97.5664 81.582 97.5664C81.5532 97.8679 81.5333 98.0826 81.5112 98.3225H80.4581C80.4348 98.0583 80.4138 97.8283 80.3905 97.5708H79.1049C79.0695 97.836 79.0374 98.0649 79.0031 98.3214H77.8858C77.8592 98.077 77.8359 97.8613 77.8105 97.6192V97.6181ZM102.146 77.3468C102.146 76.1582 102.146 75.0257 102.146 73.8932C102.146 73.1822 102.571 72.7156 103.229 72.7013C103.886 72.687 104.341 73.1327 104.367 73.8437C104.384 74.2828 104.37 74.723 104.37 75.1622C104.37 75.8874 104.37 76.6138 104.37 77.3149H108.422C108.36 76.6391 108.57 75.9997 108.087 75.4241C107.878 75.1743 107.769 74.767 107.765 74.4303C107.738 72.1961 107.751 69.9609 107.75 67.7256C107.75 67.5671 107.736 67.4098 107.728 67.2568H106.381C106.357 67.5143 106.338 67.7278 106.317 67.9733H105.263C105.243 67.7047 105.227 67.4725 105.208 67.2084H103.927C103.898 67.4813 103.872 67.7256 103.847 67.9678H102.716C102.689 67.7157 102.667 67.5033 102.64 67.2645H101.385C101.364 67.5429 101.348 67.7729 101.33 68.0052H100.281C100.247 67.7157 100.217 67.4692 100.185 67.1974H98.8308C98.8308 67.4197 98.8308 67.6167 98.8308 67.8126C98.8308 70.0478 98.8386 72.282 98.8197 74.5172C98.8175 74.7704 98.7433 75.0895 98.5783 75.2634C97.9848 75.8918 98.1952 76.6138 98.1852 77.3446H102.144L102.146 77.3468ZM74.2936 35.5352C74.2936 35.774 74.2936 35.9886 74.2936 36.2021C74.2936 38.3999 74.2992 40.5978 74.287 42.7956C74.2859 43.0377 74.2615 43.3558 74.112 43.5077C73.6182 44.0117 73.6193 44.6082 73.6237 45.2378C73.6259 45.6086 73.7233 45.7594 74.122 45.7506C75.0975 45.7275 76.0753 45.7275 77.052 45.7539C77.4661 45.7649 77.6012 45.6241 77.5934 45.2212C77.5735 44.1955 77.5746 43.1698 77.5923 42.1441C77.6034 41.487 78.0829 41.0424 78.7218 41.0479C79.322 41.0534 79.7915 41.498 79.8037 42.132C79.8225 43.1203 79.807 44.1097 79.8059 45.0991C79.8059 45.2939 79.8059 45.4898 79.8059 45.7418C81.1147 45.7418 82.3461 45.7506 83.5774 45.7275C83.6882 45.7253 83.8808 45.5239 83.8875 45.4072C83.9251 44.8085 83.9628 44.2109 83.491 43.7036C83.3294 43.5286 83.2508 43.216 83.2485 42.9662C83.2297 40.732 83.2364 38.4968 83.2364 36.2626C83.2364 36.0502 83.2364 35.8378 83.2364 35.6045H81.8433C81.8112 35.8477 81.7836 36.0601 81.7525 36.2979H80.725C80.7006 36.0271 80.6807 35.7993 80.6596 35.5605H79.3762C79.3474 35.8367 79.3231 36.0667 79.2976 36.3089H78.1704C78.1338 36.0535 78.1006 35.8279 78.0707 35.6155H76.8438C76.825 35.8961 76.8095 36.1273 76.7962 36.332H75.6811C75.6601 36.0436 75.6412 35.796 75.6224 35.5352H74.2969H74.2936ZM55.3728 77.4095C56.6982 77.4095 57.913 77.4161 59.1277 77.3974C59.2362 77.3952 59.43 77.2268 59.4356 77.1278C59.4688 76.5324 59.5374 75.9304 59.0657 75.4197C58.9007 75.2403 58.7988 74.9343 58.7966 74.6856C58.7789 72.3766 58.79 70.0676 58.79 67.7586C58.79 67.6013 58.7634 67.445 58.749 67.281H57.3925C57.3671 67.5506 57.346 67.7818 57.3228 68.0239H56.2786C56.2487 67.7564 56.2199 67.5077 56.1933 67.2667C55.0749 67.0224 54.9332 67.0994 54.8125 68.0107H53.6686C53.6487 67.7476 53.6321 67.5176 53.6144 67.2854H52.3996C52.3753 67.5616 52.3542 67.7939 52.3365 68.0019H51.2447C51.2303 67.7157 51.2192 67.4835 51.2048 67.2095C50.9612 67.1985 50.763 67.1852 50.5648 67.1819C49.8428 67.1676 49.8395 67.1687 49.8395 67.8808C49.8395 70.0797 49.8461 72.2798 49.8306 74.4787C49.8284 74.7362 49.7753 75.0543 49.6202 75.2381C49.2028 75.73 49.1452 76.2737 49.1607 76.8768C49.1718 77.2719 49.2792 77.4293 49.7 77.4183C50.6401 77.3941 51.5824 77.3853 52.5203 77.4293C53.0319 77.4535 53.1437 77.2642 53.1293 76.7998C53.0983 75.8478 53.1116 74.8936 53.1216 73.9416C53.1305 73.1272 53.6598 72.6463 54.4194 72.7365C54.9797 72.8036 55.3672 73.2582 55.3728 73.891C55.3816 75.04 55.375 76.1901 55.375 77.4084L55.3728 77.4095ZM75.4441 50.8143C75.5128 50.7241 75.5571 50.6118 75.639 50.5645C75.9579 50.3807 76.3056 50.0637 76.6112 50.0957C76.8593 50.121 77.1228 50.5447 77.2723 50.844C77.4672 51.2325 77.5359 51.6816 77.6953 52.0899C77.9976 52.8691 78.9056 53.0892 79.477 52.4773C79.7284 52.2076 79.8125 51.7751 79.9498 51.4086C80.127 50.9365 80.1957 50.4005 80.4658 49.9922C80.7914 49.5002 81.2 49.6235 81.3827 50.1881C81.4115 50.2761 81.4735 50.3543 81.5344 50.4621C81.9895 49.6455 81.9308 48.9302 81.3506 48.8377C80.6906 48.7332 80.3064 48.4712 80.1281 47.8549C80.1093 47.7911 80.0362 47.7426 79.9864 47.6887C79.0053 46.6498 77.4174 46.9491 76.6877 48.3381C76.4994 48.6968 76.3045 48.9335 75.8848 49.0578C74.9857 49.3242 74.8207 50.0175 75.4441 50.8143ZM67.6707 45.8959L67.7039 46.0555C66.7782 45.8596 66.3541 45.9157 65.8724 46.3009C64.9622 47.0284 64.7717 48.0695 65.4295 49.0853C65.6654 49.4496 65.7451 49.7479 65.6443 50.1826C65.4384 51.0763 66.0197 51.6089 66.9454 51.4339C66.9321 51.3833 66.9288 51.3283 66.9045 51.2843C66.6763 50.8683 66.5767 50.373 66.9288 50.0659C67.158 49.8667 67.6364 49.8821 67.993 49.9141C68.4824 49.957 68.9607 50.1727 69.448 50.1837C69.7259 50.1903 70.0924 50.0087 70.274 49.7908C70.7291 49.2471 70.5464 48.5703 69.9142 48.0244C69.5698 47.7272 69.1988 47.4301 68.9563 47.0581C68.8035 46.8237 68.8644 46.4495 68.8301 46.1391C69.0848 46.1281 69.3395 46.1182 69.5952 46.1072C69.6307 46.1061 69.6661 46.0962 69.747 46.0819C69.5653 45.6108 69.221 45.2179 68.7681 45.2631C68.3849 45.3005 68.035 45.6725 67.6707 45.8959ZM90.888 52.3023C91.6288 52.452 92.2389 52.0007 92.0883 51.1808C91.9964 50.6801 92.1093 50.3411 92.3862 49.9416C92.8789 49.2317 92.9852 48.4536 92.4836 47.6788C92.0152 46.9568 91.363 46.6685 90.4982 46.8138C90.3642 46.8358 90.1892 46.6663 90.0442 46.5694C89.7574 46.379 89.4905 46.0423 89.1915 46.0126C88.7076 45.9641 88.4242 46.3713 88.2459 46.6949C88.5604 46.7752 88.8527 46.8501 89.1462 46.9238C89.0542 47.2617 89.0266 47.637 88.8527 47.9253C88.691 48.1928 88.3721 48.3645 88.1241 48.5802C87.917 48.7596 87.6823 48.917 87.5151 49.1283C87.2139 49.5069 87.2139 49.9438 87.4076 50.373C87.6114 50.822 88.0078 50.9475 88.4607 50.9068C88.7708 50.8782 89.0731 50.7769 89.382 50.7417C89.8748 50.6845 90.4949 50.3708 90.8027 50.9046C91.0065 51.2579 90.8714 51.8037 90.8891 52.3023H90.888ZM85.0657 47.7724C85.0081 47.7625 84.9516 47.7526 84.894 47.7426C84.3979 48.4184 83.8997 49.093 83.408 49.7721C83.336 49.8722 83.233 50.0087 83.2541 50.1056C83.4014 50.7846 83.5774 51.4582 83.7712 52.2418C84.068 51.8533 84.2916 51.5902 84.4821 51.3052C84.6925 50.9904 85.0081 50.6691 85.0402 50.3279C85.121 49.4826 85.0668 48.6242 85.0668 47.7713L85.0657 47.7724ZM72.9626 47.1792C72.4699 49.1162 72.8386 50.8198 73.916 51.6353C74.1098 51.0179 74.3058 50.4159 74.483 49.8073C74.514 49.6995 74.5062 49.5443 74.4475 49.454C73.9725 48.7056 73.4808 47.9683 72.9626 47.1792Z" fill="white"/>
<path id="Vector_2" d="M104.958 21.8903C104.872 22.1104 104.808 22.281 104.741 22.4482C104.713 22.5154 104.676 22.5781 104.622 22.6882C103.95 22.2733 103.214 22.0234 102.507 22.4548C102.096 22.7058 101.69 23.1152 101.504 23.5477C101.042 24.6197 101.686 25.532 103.216 26.0867C103.118 26.352 103.021 26.6183 102.907 26.9286C95.0405 23.6952 86.7921 22.8389 78.4307 22.8224C70.0604 22.8059 61.8031 23.6424 53.8935 26.8197C53.7507 26.4961 53.6067 26.1715 53.4539 25.827C55.065 25.7444 55.7671 25.302 55.9564 24.2884C56.1214 23.4046 55.6453 22.5605 54.786 22.2116C53.8702 21.8407 52.9866 22.1698 52.2801 23.1482C52.2536 23.1339 52.2137 23.1251 52.2015 23.1031C51.5759 21.8484 51.5703 21.8374 52.8161 21.1826C55.1448 19.9577 57.6351 19.1653 60.1831 18.5566C67.9 16.7121 75.7332 16.3126 83.6296 16.7462C88.184 16.996 92.6864 17.6003 97.1057 18.7481C99.4632 19.3601 101.758 20.147 103.918 21.2838C104.258 21.4632 104.583 21.6701 104.96 21.8914L104.958 21.8903ZM77.5271 17.9976C76.7453 18.2408 75.9746 18.3806 75.2992 18.7129C74.0734 19.3149 74.0479 20.6235 75.2305 21.2938C76.7564 22.1577 78.3343 22.1533 79.8602 21.2938C81.0296 20.6356 81.0296 19.3513 79.8348 18.7448C79.1338 18.3894 78.3233 18.2463 77.526 17.9965L77.5271 17.9976ZM96.6949 21.3631C95.4979 20.5476 94.3839 19.7805 93.2555 19.0343C93.1459 18.9617 92.9366 18.9859 92.7927 19.0288C91.8935 19.2918 90.9977 19.5681 90.1041 19.8487C89.6778 19.983 89.257 20.1349 88.7421 20.3098C89.979 21.2299 91.1228 22.0862 92.2767 22.9281C92.3708 22.9963 92.5601 23.0117 92.672 22.9688C93.9853 22.4559 95.2919 21.9266 96.696 21.3631H96.6949ZM60.0081 21.5502C61.4399 22.1478 62.7598 22.7036 64.0864 23.2418C64.1994 23.2869 64.392 23.2671 64.4906 23.1966C65.6389 22.3789 66.7761 21.5447 67.9986 20.6565C66.6377 20.1525 65.3654 19.6781 64.0897 19.2148C64 19.1818 63.8605 19.1961 63.7786 19.2445C62.555 19.9852 61.3358 20.7347 60.007 21.5491L60.0081 21.5502Z" fill="white"/>
<path id="Vector_3" d="M92.3696 6.06319C92.1371 3.49226 92.6719 2.27173 94.3628 1.47162C95.6639 0.856407 97.4213 1.15576 98.4101 2.16168C99.7256 3.49997 99.8385 4.88448 98.7899 7.08231C100.789 7.67882 101.911 8.97638 101.748 11.0972C101.627 12.6523 100.5 13.8464 99.0368 14.214C97.3493 14.6388 96.1168 14.0599 94.684 12.1515C93.2134 13.4799 91.5945 13.7969 89.8582 12.7128C88.6169 11.938 87.988 10.4005 88.3412 8.98299C88.8561 6.92163 90.3167 6.06208 92.3685 6.06319H92.3696Z" fill="white"/>
<path id="Vector_4" d="M62.1939 12.7281C60.8463 14.8169 59.5585 15.4993 57.7768 15.069C56.2841 14.7091 55.1635 13.4071 55.0162 11.8619C54.8546 10.178 55.7138 8.91239 57.6694 8.00333C56.3838 6.29635 56.2531 4.55415 57.7558 2.94072C58.7977 1.82144 60.173 1.51108 61.6126 2.07127C63.5847 2.83837 64.2214 4.40227 63.9291 6.44602C66.0507 6.25563 67.591 7.00401 68.2698 9.04666C68.7437 10.4741 68.1801 12.0072 66.9443 12.9526C65.62 13.964 64.1085 13.8925 62.195 12.727L62.1939 12.7281Z" fill="white"/>
<path id="Vector_5" d="M74.9382 5.48403C74.1852 3.39295 74.4753 1.89838 75.8218 0.808823C77.0221 -0.164078 78.816 -0.270833 80.1204 0.55129C81.6109 1.49117 81.9996 2.91861 81.4326 5.36737C83.8588 5.97268 84.8819 6.95438 85.0646 8.85616C85.1942 10.2044 84.3028 11.6912 82.9784 12.3373C81.437 13.0889 79.9831 12.7081 78.2657 11.0793C76.9701 12.7478 75.3268 13.3014 73.3757 12.3472C71.9683 11.6582 71.2563 10.1636 71.4645 8.69328C71.7037 7.00171 72.7767 6.0024 74.9371 5.48293L74.9382 5.48403Z" fill="white"/>
<path id="Vector_6" d="M116.444 10.288C115.645 10.3353 115.004 10.3584 114.365 10.4145C113.392 10.4993 112.63 10.9758 112.212 11.8387C111.421 13.4675 110.684 15.1238 109.955 16.7813C109.305 18.2616 107.62 19.1079 106.269 18.5917C105.36 18.244 104.876 17.5627 104.866 16.57C104.857 15.6917 105.435 15.2284 106.141 14.8729C106.335 14.775 106.543 14.7067 106.794 14.6055C106.526 14.2621 106.263 13.9672 106.045 13.6425C105.087 12.214 105.767 10.3166 107.365 10.1229C107.9 10.0579 108.484 10.3573 109.039 10.5125C109.188 10.5543 109.312 10.6787 109.421 10.748C109.607 10.1163 109.725 9.48345 109.978 8.90895C110.531 7.65431 111.602 7.10953 112.925 7.03359C114.193 6.96095 115.048 7.6466 115.659 8.66463C115.956 9.15878 116.166 9.70466 116.444 10.288Z" fill="white"/>
<path id="Vector_7" d="M50.133 14.9807C50.5283 15.1601 50.9281 15.301 51.2868 15.5123C52.5946 16.2816 52.3288 17.9379 51.3743 18.6698C50.133 19.6229 48.0357 19.1287 47.2451 17.6353C46.6283 16.4709 46.1101 15.2536 45.5077 14.0804C45.2076 13.496 44.8256 12.9523 44.4668 12.3999C43.9408 11.5909 43.1535 11.2509 42.2156 11.2212C41.6121 11.2024 41.0075 11.2179 40.4041 11.2179C40.5236 9.73649 41.6753 7.97558 43.3529 7.75767C45.1678 7.52215 46.4977 8.68765 47.2418 11.3378C48.4189 10.4508 49.6557 10.0369 50.721 11.3862C51.7818 12.7311 50.9934 13.8911 50.1341 14.9807H50.133Z" fill="white"/>
<path id="Vector_8" d="M50.1584 134.376V125.528H51.4407V126.624C53.1737 124.705 55.8877 125.008 56.6828 126.747C57.0681 126.42 57.4258 126.059 57.8377 125.777C58.7701 125.141 60.3945 125.165 61.2472 125.788C61.8385 126.221 62.1585 126.85 62.1729 127.53C62.2216 129.78 62.1917 132.03 62.1917 134.33H60.8076C60.7998 134.159 60.7843 133.967 60.7832 133.775C60.7788 131.997 60.7899 130.219 60.771 128.441C60.76 127.364 60.4278 126.854 59.6659 126.622C58.666 126.317 57.4856 126.875 57.1357 127.863C57.0039 128.235 56.9319 128.646 56.9264 129.04C56.9032 130.598 56.9164 132.156 56.9153 133.714C56.9153 133.912 56.9153 134.109 56.9153 134.341H55.436C55.4271 134.146 55.4116 133.953 55.4116 133.759C55.4094 132 55.4116 130.24 55.4083 128.48C55.4061 127.312 55.0085 126.717 54.1492 126.576C53.1172 126.408 52.1118 126.978 51.8117 127.974C51.6655 128.458 51.5969 128.981 51.5858 129.488C51.5548 130.935 51.5515 132.385 51.578 133.832C51.5869 134.283 51.433 134.421 51.0089 134.38C50.7387 134.354 50.4641 134.376 50.1584 134.376Z" fill="white"/>
<path id="Vector_9" d="M0 134.371C0.457325 133.175 0.883644 132.05 1.31771 130.928C2.38185 128.18 3.46039 125.437 4.50459 122.681C4.67512 122.233 4.90323 122.128 5.37384 122.082C6.21873 122.003 6.61626 122.278 6.93406 123.085C8.36694 126.732 9.88176 130.347 11.3667 133.974C11.4143 134.09 11.4486 134.21 11.4885 134.325C11.4453 134.344 11.4287 134.356 11.4121 134.357C10.2996 134.431 9.55399 133.951 9.17528 132.917C8.94164 132.281 8.68917 131.652 8.45884 131.015C8.35919 130.739 8.21523 130.626 7.89411 130.63C6.42026 130.651 4.94531 130.645 3.47146 130.63C3.14591 130.627 2.98424 130.727 2.87683 131.049C2.55238 132.019 2.17146 132.971 1.84702 133.942C1.73296 134.281 1.56243 134.403 1.21252 134.377C0.833815 134.349 0.451788 134.37 0.00110732 134.37L0 134.371ZM3.54011 129.319H7.7712C7.03815 127.344 6.33057 125.437 5.61413 123.507C4.91762 125.459 4.23883 127.359 3.53901 129.319H3.54011Z" fill="white"/>
<path id="Vector_10" d="M99.1807 126.497V122.141H100.583V134.333H99.3213C99.2981 134.039 99.2748 133.738 99.2494 133.416C99.163 133.438 99.0899 133.435 99.0678 133.465C98.0158 134.957 95.4745 134.877 94.1335 133.458C92.5988 131.832 92.4703 128.35 93.8678 126.601C94.8677 125.349 97.2639 124.55 99.1818 126.496L99.1807 126.497ZM94.3495 129.762C94.4214 130.364 94.4425 130.86 94.5455 131.339C94.7813 132.441 95.6461 133.237 96.6759 133.355C97.5718 133.459 98.5296 132.96 98.9094 132.061C99.5129 130.629 99.5063 129.16 98.8219 127.757C98.3923 126.876 97.6083 126.427 96.6062 126.519C95.6284 126.608 94.9696 127.178 94.6761 128.09C94.4945 128.657 94.4425 129.266 94.3495 129.762Z" fill="white"/>
<path id="Vector_11" d="M145.279 127.987C145.56 126.694 146.269 125.861 147.55 125.54C148.812 125.224 150.061 125.196 151.301 125.633C152.207 125.953 152.661 126.638 152.702 127.549C152.759 128.81 152.709 130.077 152.758 131.339C152.796 132.335 152.915 133.329 152.999 134.336C151.801 134.542 151.72 134.499 151.373 133.424C150.655 133.752 149.958 134.211 149.199 134.377C148.453 134.54 147.616 134.525 146.864 134.369C145.68 134.124 145.064 133.298 145.012 132.212C144.956 131.042 145.539 130.096 146.673 129.7C147.308 129.479 147.994 129.399 148.659 129.271C149.399 129.128 150.142 128.996 150.885 128.872C151.207 128.818 151.293 128.633 151.291 128.334C151.29 127.366 150.896 126.798 149.934 126.614C149.403 126.513 148.835 126.523 148.293 126.577C147.572 126.649 147.067 127.081 146.852 127.77C146.738 128.137 146.547 128.217 146.207 128.144C145.904 128.079 145.598 128.041 145.275 127.987H145.279ZM151.211 129.981C150.019 130.212 148.863 130.416 147.717 130.668C146.983 130.83 146.563 131.367 146.566 132.022C146.57 132.651 147.029 133.168 147.75 133.353C149.88 133.899 151.659 132.182 151.211 129.982V129.981Z" fill="white"/>
<path id="Vector_12" d="M40.2269 128.004C40.4473 126.686 41.187 125.904 42.3906 125.559C43.4703 125.251 44.5743 125.215 45.6705 125.451C47.0059 125.739 47.6449 126.529 47.6781 127.892C47.698 128.734 47.6781 129.577 47.6936 130.419C47.718 131.728 47.5729 133.053 48.0756 134.319C46.6306 134.522 46.6095 134.511 46.2829 133.286C46.0902 133.422 45.9219 133.537 45.7569 133.656C44.4912 134.563 43.0993 134.775 41.6199 134.338C40.5635 134.027 39.9955 133.243 39.9368 132.189C39.8803 131.169 40.2978 130.244 41.2855 129.869C42.2312 129.509 43.2698 129.388 44.2697 129.171C44.6108 129.097 44.9718 129.092 45.2996 128.984C45.6163 128.881 46.1422 129.036 46.191 128.537C46.2519 127.914 46.2009 127.279 45.5775 126.879C44.1347 125.952 42.2489 126.546 41.6166 128.176C41.1825 128.122 40.733 128.066 40.228 128.002L40.2269 128.004ZM46.1599 129.934C45.8809 130.007 45.6572 130.077 45.428 130.122C44.4724 130.313 43.509 130.468 42.5611 130.69C41.879 130.851 41.5136 131.362 41.5125 132.001C41.5125 132.637 41.8879 133.142 42.5556 133.317C43.6264 133.597 44.6186 133.394 45.4468 132.661C46.2663 131.936 46.233 130.96 46.1599 129.935V129.934Z" fill="white"/>
<path id="Vector_13" d="M110.805 130.3H104.176C104.027 132.241 105.631 133.693 107.42 133.315C108.212 133.148 108.731 132.65 109.04 131.951C109.192 131.608 109.369 131.52 109.708 131.592C110.028 131.659 110.355 131.696 110.719 131.752C110.547 132.556 110.14 133.161 109.566 133.675C108.148 134.945 104.724 134.963 103.358 132.89C102.248 131.209 102.176 127.226 104.61 125.859C106.601 124.741 109.974 125.241 110.636 128.415C110.715 128.791 110.76 129.173 110.801 129.553C110.824 129.767 110.805 129.984 110.805 130.3ZM109.2 129.078C109.178 127.422 108.13 126.424 106.54 126.498C105.263 126.558 104.178 127.776 104.27 129.078H109.199H109.2Z" fill="white"/>
<path id="Vector_14" d="M65.6056 130.305C65.5946 132.343 66.9865 133.622 68.7958 133.325C69.5477 133.201 70.1058 132.782 70.3893 132.106C70.6008 131.602 70.8798 131.496 71.3648 131.63C71.6084 131.698 71.8709 131.694 72.1245 131.722C72.0026 132.907 71.0083 133.982 69.7061 134.358C67.4914 134.999 65.3709 134.178 64.5138 132.349C63.6789 130.565 63.9923 127.836 65.1782 126.576C66.2789 125.406 68.1392 124.976 69.6551 125.54C71.1744 126.106 72.1732 127.537 72.2374 129.239C72.2773 130.284 72.2773 130.279 71.2065 130.276C69.5278 130.271 67.8502 130.272 66.1715 130.273C65.9921 130.273 65.8127 130.292 65.6045 130.304L65.6056 130.305ZM70.6661 129.089C70.5587 127.335 69.4447 126.334 67.8978 126.501C66.4782 126.655 65.5148 128.09 65.7363 129.089H70.6661Z" fill="white"/>
<path id="Vector_15" d="M27.5303 125.543V126.661C27.8426 126.388 28.074 126.145 28.3431 125.956C29.5866 125.085 30.8943 125.127 32.2098 125.761C32.9152 126.1 33.3327 126.759 33.3537 127.475C33.4213 129.756 33.3792 132.039 33.3792 134.342H31.9873C31.9873 132.665 31.9928 131.02 31.9839 129.377C31.9817 128.939 31.9684 128.497 31.9042 128.065C31.7713 127.183 31.3184 126.749 30.4403 126.596C29.1337 126.369 27.9754 127.141 27.7828 128.437C27.6787 129.138 27.6842 129.859 27.6742 130.571C27.6576 131.67 27.6576 132.769 27.6776 133.867C27.6842 134.236 27.5901 134.417 27.187 134.381C26.8958 134.356 26.6012 134.376 26.2214 134.376C26.2214 134.144 26.2214 133.951 26.2214 133.757C26.2214 131.267 26.2237 128.775 26.2214 126.285C26.2214 125.48 26.217 125.479 27.0276 125.503C27.1726 125.508 27.3177 125.525 27.5303 125.542V125.543Z" fill="white"/>
<path id="Vector_16" d="M16.5666 125.535H18.015C18.015 126.369 18.0139 127.171 18.015 127.972C18.0172 129.143 17.9807 130.316 18.0372 131.485C18.0903 132.604 18.6285 133.176 19.5885 133.299C20.6471 133.433 21.7877 132.8 22.0568 131.861C22.1963 131.375 22.2561 130.854 22.2672 130.347C22.297 128.956 22.3037 127.562 22.2727 126.171C22.2605 125.645 22.4078 125.423 22.9526 125.501C23.1829 125.534 23.421 125.507 23.6945 125.507V134.349H22.4355V133.104C22.1708 133.357 21.9992 133.523 21.8253 133.687C20.5309 134.914 18.0372 134.825 17.086 133.476C16.8224 133.102 16.5999 132.609 16.5899 132.165C16.5401 129.972 16.5666 127.777 16.5666 125.535Z" fill="white"/>
<path id="Vector_17" d="M75.6801 134.301C74.2195 134.552 74.1962 134.532 74.1985 133.201C74.2018 130.837 74.2007 128.474 74.2007 126.11C74.2007 125.931 74.2007 125.752 74.2007 125.538H75.4752C75.4962 125.902 75.5162 126.238 75.5405 126.65C75.8362 126.382 76.0543 126.137 76.3168 125.955C77.5193 125.128 78.8038 125.113 80.095 125.694C80.8347 126.028 81.3064 126.673 81.323 127.465C81.3728 129.747 81.3407 132.029 81.3407 134.345H79.9577C79.9577 134.055 79.9577 133.77 79.9577 133.484C79.9565 131.927 79.9621 130.37 79.9521 128.812C79.9422 127.283 79.4029 126.621 78.1394 126.559C76.8173 126.496 75.8041 127.368 75.7288 128.735C75.6623 129.94 75.69 131.152 75.6801 132.361C75.6745 133 75.6801 133.638 75.6801 134.301Z" fill="white"/>
<path id="Vector_18" d="M117.724 122.134H119.28C119.28 122.369 119.28 122.582 119.28 122.795C119.28 126 119.289 129.204 119.268 132.409C119.264 132.876 119.412 132.997 119.86 132.991C121.663 132.971 123.467 132.983 125.363 132.983C125.363 133.388 125.382 133.763 125.35 134.133C125.342 134.22 125.163 134.362 125.062 134.362C122.633 134.375 120.203 134.372 117.724 134.372V122.133V122.134Z" fill="white"/>
<path id="Vector_19" d="M82.9839 125.537C83.3958 125.513 83.7192 125.493 84.1178 125.469C84.1178 124.915 84.1588 124.387 84.1056 123.867C84.058 123.404 84.264 123.148 84.6294 122.948C84.9151 122.793 85.1985 122.637 85.575 122.431C85.575 123.292 85.6083 124.072 85.564 124.848C85.533 125.392 85.729 125.575 86.2527 125.511C86.5041 125.48 86.7621 125.505 87.0367 125.505C87.0633 125.654 87.0954 125.756 87.0987 125.859C87.1186 126.358 86.8684 126.608 86.3479 126.61C86.1121 126.61 85.8773 126.61 85.5761 126.61C85.5761 127.055 85.5761 127.434 85.5761 127.815C85.5761 129.188 85.5695 130.561 85.5806 131.933C85.5894 132.954 85.7334 133.096 86.761 133.1C87.0356 133.101 87.1773 133.167 87.184 133.458C87.1873 133.621 87.2183 133.786 87.2593 133.944C87.3346 134.236 87.2559 134.405 86.9304 134.422C86.6558 134.436 86.3812 134.482 86.1065 134.481C84.7711 134.474 84.1676 133.923 84.1399 132.592C84.1034 130.816 84.1233 129.04 84.12 127.265C84.12 127.069 84.12 126.873 84.12 126.673C83.7236 126.614 83.3061 126.665 83.0791 126.481C82.9164 126.35 83.0105 125.906 82.9861 125.537H82.9839Z" fill="white"/>
<path id="Vector_20" d="M39.2768 134.314C38.5105 134.565 37.7908 134.555 37.0799 134.292C36.5982 134.114 36.2671 133.765 36.2206 133.249C36.1541 132.521 36.1231 131.788 36.1154 131.057C36.0999 129.596 36.1109 128.134 36.1109 126.613H35.0081V125.538C35.3613 125.519 35.7012 125.501 36.1143 125.478C36.1143 124.946 36.1497 124.435 36.1043 123.932C36.0611 123.448 36.2018 123.13 36.6613 122.935C36.9414 122.816 37.1983 122.642 37.5704 122.436C37.5704 123.357 37.5903 124.172 37.5615 124.986C37.5471 125.389 37.6535 125.559 38.0842 125.508C38.4053 125.471 38.7353 125.501 39.083 125.501V126.595H37.5682C37.5682 126.934 37.5682 127.22 37.5682 127.506C37.5682 129.008 37.5649 130.51 37.5726 132.013C37.5782 132.915 37.7863 133.135 38.6744 133.097C39.0476 133.08 39.1727 133.216 39.1926 133.548C39.207 133.783 39.2436 134.018 39.2768 134.313V134.314Z" fill="white"/>
<path id="Vector_21" d="M10.7842 137.82C10.8728 137.399 10.9503 137.031 11.0245 136.676C11.0843 136.653 11.1186 136.626 11.1496 136.63C12.3422 136.784 12.526 136.649 12.67 135.458C12.7098 135.132 12.7165 134.801 12.7176 134.473C12.7209 131.746 12.7176 129.018 12.7176 126.291C12.7176 126.057 12.7176 125.822 12.7176 125.544H14.1272C14.1372 125.697 14.1571 125.871 14.1571 126.045C14.1571 129.065 14.1571 132.085 14.1527 135.106C14.1527 135.397 14.1416 135.693 14.0951 135.981C13.8338 137.589 12.8981 138.231 11.2758 137.93C11.133 137.903 10.9924 137.867 10.7831 137.821L10.7842 137.82Z" fill="white"/>
<path id="Vector_22" d="M128.579 134.349H127.202V122.139H128.579V134.349Z" fill="white"/>
<path id="Vector_23" d="M140.687 125.79C140.496 126.256 140.332 126.656 140.162 127.072C139.298 126.738 138.476 126.61 137.883 127.431C137.647 127.758 137.478 128.195 137.449 128.593C137.363 129.798 137.355 131.007 137.33 132.214C137.316 132.909 137.328 133.603 137.328 134.336H135.911V125.548H137.159V126.604C137.681 126.183 138.134 125.657 138.709 125.401C139.353 125.112 140.034 125.401 140.689 125.789L140.687 125.79Z" fill="white"/>
<path id="Vector_24" d="M143.096 134.343H141.684V125.55H143.096V134.343Z" fill="white"/>
<path id="Vector_25" d="M133.029 125.506V134.343H131.618C131.618 134.03 131.618 133.728 131.618 133.425C131.618 131.046 131.618 128.665 131.618 126.286C131.618 125.764 131.873 125.504 132.383 125.506C132.581 125.506 132.779 125.506 133.029 125.506Z" fill="white"/>
<path id="Vector_26" d="M56.2908 16.0211C56.2831 16.9709 55.5578 17.7083 54.6276 17.7116C53.682 17.7149 52.8592 16.9291 52.8648 16.0288C52.8714 15.09 53.6532 14.3119 54.5944 14.3086C55.5622 14.3053 56.2997 15.0493 56.2908 16.0211Z" fill="white"/>
<path id="Vector_27" d="M69.9031 14.7529C68.9198 14.7243 68.179 13.9297 68.2233 12.9513C68.2632 12.0621 69.0904 11.3192 70.0039 11.3511C70.9197 11.383 71.7191 12.2381 71.6715 13.1362C71.6228 14.0464 70.8211 14.7805 69.9031 14.7529Z" fill="white"/>
<path id="Vector_28" d="M84.5541 13.101C84.5585 12.1138 85.2606 11.4314 86.2749 11.4292C87.2183 11.427 87.9846 12.1754 87.9702 13.0856C87.9547 14.0629 87.1729 14.8278 86.2029 14.8134C85.2982 14.8002 84.5497 14.0221 84.5541 13.101Z" fill="white"/>
<path id="Vector_29" d="M99.8241 15.7878C99.8296 14.8545 100.572 14.104 101.496 14.0962C102.438 14.0885 103.229 14.8578 103.235 15.7889C103.24 16.7343 102.465 17.5124 101.526 17.5058C100.563 17.4992 99.8186 16.7475 99.8252 15.7878H99.8241Z" fill="white"/>
<path id="Vector_30" d="M134.131 122.04C133.503 122.837 133.002 123.578 132.382 124.202C132.176 124.409 131.665 124.316 131.104 124.382C131.51 123.539 131.841 122.843 132.187 122.154C132.218 122.092 132.34 122.047 132.42 122.046C132.943 122.036 133.467 122.042 134.131 122.042V122.04Z" fill="white"/>
<path id="Vector_31" d="M141.7 122.144H143.115V123.728H141.7V122.144Z" fill="white"/>
<path id="Vector_32" d="M14.1604 123.783C13.7197 123.783 13.2978 123.887 12.97 123.76C12.4241 123.545 12.8095 122.999 12.7319 122.608C12.7032 122.465 12.8881 122.28 12.9778 122.115C12.9822 122.107 13.0132 122.113 13.0309 122.111C14.0696 121.969 14.1615 122.046 14.1615 123.073C14.1615 123.287 14.1615 123.501 14.1615 123.783H14.1604Z" fill="white"/>
<path id="Vector_33" d="M79.5811 77.9908H77.5968C77.5968 77.0058 77.5636 76.0439 77.609 75.0864C77.6389 74.4623 78.0785 74.0672 78.5724 74.0893C79.1006 74.1124 79.5258 74.5383 79.5701 75.1458C79.6033 75.6003 79.5811 76.0582 79.5822 76.5149C79.5822 76.987 79.5822 77.4603 79.5822 77.9908H79.5811Z" fill="white"/>
<path id="Vector_34" d="M85.8619 78.0146C85.2529 78.0146 84.7191 78.0333 84.1898 78.0003C84.0714 77.9926 83.872 77.8022 83.8698 77.6921C83.8499 76.8502 83.8399 76.006 83.8853 75.1652C83.923 74.4784 84.3194 74.0756 84.8365 74.0866C85.3802 74.0977 85.8287 74.539 85.853 75.1905C85.8874 76.1029 85.8619 77.0186 85.8619 78.0157V78.0146Z" fill="white"/>
<path id="Vector_35" d="M73.2938 77.9762H71.3704C71.3704 76.9483 71.3327 75.9324 71.387 74.9221C71.4125 74.4577 71.7336 74.1088 72.2607 74.0923C72.7767 74.0769 73.2462 74.4313 73.2772 74.9837C73.3337 75.9643 73.2927 76.9516 73.2927 77.9762H73.2938Z" fill="white"/>
<path id="Vector_36" d="M77.0443 64.5194H75.0578C75.0578 63.804 75.0124 63.1129 75.0711 62.4305C75.1264 61.7867 75.4874 61.4873 76.0145 61.4983C76.567 61.5104 77.0033 61.91 77.0366 62.5153C77.072 63.169 77.0443 63.826 77.0443 64.5205V64.5194Z" fill="white"/>
<path id="Vector_37" d="M79.6354 66.3464H77.6489C77.6489 65.6487 77.6068 64.9575 77.661 64.273C77.7087 63.6676 78.1173 63.3044 78.5978 63.3067C79.1371 63.3089 79.559 63.6412 79.6199 64.2586C79.6852 64.9256 79.6343 65.6035 79.6343 66.3453L79.6354 66.3464Z" fill="white"/>
<path id="Vector_38" d="M82.366 64.5153C82.097 64.5296 81.953 64.5439 81.809 64.545C81.3318 64.5483 80.8534 64.545 80.2422 64.545C80.2887 63.7383 80.2898 62.9602 80.3939 62.1964C80.4504 61.7782 80.7538 61.4855 81.2498 61.4954C81.7326 61.5053 82.1257 61.7177 82.1955 62.1777C82.3096 62.9283 82.3129 63.6954 82.3671 64.5153H82.366Z" fill="white"/>
<path id="Vector_39" d="M88.3012 69.0442H86.7953C86.8208 68.4785 86.782 67.9128 86.8983 67.3812C86.9514 67.1391 87.2858 66.8398 87.5394 66.7869C87.9347 66.7033 88.2536 66.9916 88.2902 67.4055C88.3356 67.9249 88.3012 68.4521 88.3012 69.0431V69.0442Z" fill="white"/>
<path id="Vector_40" d="M70.5111 69.0156C68.7548 69.108 68.9409 69.3138 69.0295 67.5529C69.0516 67.1237 69.2299 66.7297 69.7547 66.766C70.2508 66.8001 70.4967 67.1336 70.5088 67.6189C70.5199 68.0746 70.5111 68.5291 70.5111 69.0156Z" fill="white"/>
<path id="Vector_41" d="M77.2791 101.839H75.9802C75.9802 101.343 75.9193 100.848 76.009 100.382C76.0477 100.184 76.3843 99.9423 76.6158 99.9037C76.9668 99.8454 77.2624 100.052 77.2757 100.466C77.2901 100.903 77.2791 101.34 77.2791 101.839Z" fill="white"/>
<path id="Vector_42" d="M79.6077 101.828C79.6077 101.359 79.5944 100.922 79.611 100.486C79.6265 100.095 79.8524 99.8642 80.2477 99.884C80.6087 99.9027 80.8933 100.079 80.9099 100.484C80.9276 100.919 80.9143 101.355 80.9143 101.828H79.6077Z" fill="white"/>
<path id="Vector_43" d="M102.118 71.4916H100.812C100.812 70.9875 100.751 70.4933 100.841 70.0267C100.878 69.8275 101.212 69.581 101.441 69.5457C101.786 69.4918 102.089 69.7086 102.112 70.1048C102.138 70.555 102.118 71.0073 102.118 71.4916Z" fill="white"/>
<path id="Vector_44" d="M105.758 71.4948H104.444C104.444 71.0205 104.424 70.5539 104.45 70.0916C104.472 69.7317 104.686 69.5259 105.069 69.5413C105.445 69.5556 105.724 69.7196 105.752 70.1136C105.781 70.5495 105.758 70.9886 105.758 71.4948Z" fill="white"/>
<path id="Vector_45" d="M79.8447 39.7722C79.8447 39.3441 79.827 38.9424 79.8503 38.5429C79.8724 38.1544 80.0474 37.8715 80.4958 37.8847C80.9299 37.8968 81.1835 38.1081 81.199 38.5583C81.2012 38.6133 81.2012 38.6683 81.2034 38.7223C81.2554 39.9384 81.179 40.0011 79.8447 39.7722Z" fill="white"/>
<path id="Vector_46" d="M77.5448 39.814H76.2127C76.2127 39.3418 76.144 38.8785 76.2404 38.4504C76.2913 38.2259 76.6058 37.9639 76.8483 37.9034C77.196 37.8164 77.5071 38.0322 77.5359 38.4295C77.5691 38.8774 77.5437 39.3297 77.5437 39.814H77.5448Z" fill="white"/>
<path id="Vector_47" d="M56.7382 71.4983H55.4027C55.4027 71.0394 55.3894 70.608 55.4072 70.1776C55.4227 69.8013 55.6242 69.5481 56.0184 69.5426C56.448 69.536 56.7127 69.7671 56.7337 70.203C56.7537 70.619 56.7382 71.0361 56.7382 71.4983Z" fill="white"/>
<path id="Vector_48" d="M53.1072 71.4993H51.785C51.785 71.0073 51.7529 70.5396 51.7961 70.0796C51.8282 69.7406 52.0729 69.4665 52.4284 69.5623C52.682 69.6305 53.0286 69.8583 53.0773 70.0729C53.1781 70.5165 53.1072 70.9985 53.1072 71.4993Z" fill="white"/>
</g>
<defs>
<clipPath id="clip0_139_112">
<rect width="153" height="138" fill="white"/>
</clipPath>
</defs>
</svg>
