<svg width="159" height="103" viewBox="0 0 159 103" fill="none" xmlns="http://www.w3.org/2000/svg">
<g id="Capa_1" clip-path="url(#clip0_85_207)">
<path id="Vector" d="M98.8916 58.2034C98.987 57.2896 99.0665 56.3757 99.181 55.4651C99.5531 52.5718 99.1746 49.8683 96.7833 47.9047C95.9247 47.1964 95.718 46.507 95.9056 45.5426C96.3603 43.9332 96.885 42.3363 97.2539 40.7079C98.4528 35.4146 99.2223 30.0898 98.2715 24.6511C98.1475 23.9491 97.3207 22.9752 98.3001 22.5388C99.1142 22.1784 99.8838 23.0037 100.529 23.6013C101.003 24.0408 101.299 24.5784 101.49 25.176C101.811 26.1783 102.091 27.1965 102.425 28.1957C102.533 28.5151 102.51 28.9989 103.019 29.0242C103.519 29.0495 103.585 28.5752 103.716 28.2685C104.148 27.2376 104.523 26.1815 104.978 24.9799C105.655 26.4123 106.244 27.6582 106.886 29.0179C107.942 27.8447 108.142 26.5325 108.616 25.2993C110.266 26.561 110.578 28.3254 110.941 30.0771C111.02 30.4692 111.103 31.0447 111.656 31.0321C112.184 31.0226 112.302 30.4566 112.362 30.0771C112.531 29.0179 112.594 27.9459 112.728 26.6179C114.009 27.9301 115.227 28.8914 115.603 30.5008C115.714 30.9846 115.866 31.557 116.496 31.5285C117.215 31.4969 117.043 30.8392 117.132 30.3838C117.975 25.9475 116.121 22.1057 114.381 18.2543C114.073 17.5681 113.322 17.0875 112.547 17.1571C111.268 17.2709 110.425 16.7017 109.704 15.7816C108.473 13.6852 106.314 13.584 104.12 13.3911C106.075 13.0022 107.678 13.3215 108.963 14.7919C109.335 15.2156 109.875 15.1745 110.066 14.4693C110.378 13.233 111.023 13.8686 111.51 14.2701C112.181 14.8203 112.769 15.4685 113.396 16.0725C113.723 16.3887 114.245 16.7555 114.455 16.199C115.081 14.5452 115.599 15.8322 116.095 16.2148C116.855 16.8061 117.158 17.7262 117.638 18.5231C117.781 18.7602 118.096 19.0163 118.347 19.0353C118.833 19.0701 118.903 18.5926 118.926 18.2416C118.973 17.5017 119.027 16.7523 118.945 16.0187C118.563 12.6449 116.693 10.033 114.445 7.65517C111.526 4.56903 109.735 4.27812 105.875 6.11526C105.83 6.13739 105.719 6.01408 105.601 5.93503C105.69 5.77692 105.786 5.62831 105.859 5.47021C106.075 4.99274 106.959 4.72713 106.584 4.12634C106.18 3.48129 105.449 3.99354 104.86 4.03148C103.34 4.12318 102.002 4.72713 100.777 5.59985C100.653 5.38483 100.558 5.28997 100.542 5.18246C100.386 4.20539 101.553 2.3809 99.0156 2.93742C98.5736 3.03544 98.6658 2.40304 98.6277 2.05521C98.5545 1.35008 98.9043 0.395146 98.0235 0.0757811C97.0567 -0.275204 96.6783 0.746132 96.1059 1.2647C95.877 1.4734 95.7307 1.81806 95.4731 1.94138C94.3315 2.48841 95.2092 4.21804 94.3029 4.42357C93.3234 4.64808 92.7574 3.11133 91.6603 2.93426C91.0911 2.84256 90.1116 2.59908 90.5664 3.6299C91.2437 5.15717 90.436 5.01804 89.4407 4.94215C88.881 4.89788 88.3149 4.87891 87.7584 4.90736C87.2783 4.93266 86.6709 4.91685 86.5119 5.48285C86.3719 5.98246 86.9189 6.17534 87.2369 6.45992C88.0224 7.16189 89.1258 7.57296 89.5138 8.71129C88.7569 9.04963 88.1273 8.8852 87.574 8.64172C85.9204 7.91762 84.4321 8.39192 82.8962 9.04963C81.5829 9.61247 80.9373 10.1943 82.3111 11.2599C79.4523 13.2172 77.3789 15.5539 75.8684 18.6654C74.0081 22.4914 73.2004 26.3586 73.4103 30.523C74.4088 31.2787 74.7109 30.5546 74.8953 29.7799C75.1084 28.885 75.1434 27.9491 75.4296 26.9467C75.6172 27.7404 75.6522 28.4708 76.0465 29.0937C76.3104 29.5111 76.5394 30.0518 77.1277 29.9918C77.8623 29.919 77.8814 29.2518 77.945 28.708C78.0658 27.6866 78.0086 26.6274 78.581 25.606C79.1915 26.0519 79.535 26.9309 80.3363 26.5831C81.1122 26.2479 81.1917 25.41 81.2935 24.6764C81.4271 23.7088 81.3666 22.7286 81.3348 21.6598C82.397 22.8424 82.8771 22.8456 83.5672 21.7104C84.1173 20.8029 84.2477 19.7025 84.8233 18.8077C85.0395 18.4725 85.0968 17.6756 85.8568 18.2385C86.8712 18.9847 87.609 18.3523 88.3277 17.7199C89.0972 17.0432 89.7714 16.2053 91.0243 16.3318C87.7489 17.7136 86.0953 20.7839 83.7167 23.0954C82.7976 23.9902 82.222 25.1159 82.6386 26.4693C82.9026 27.3262 82.4955 28.0187 82.2411 28.787C80.8451 33.0336 80.3363 37.3719 81.09 41.8083C81.214 42.5324 81.3539 43.4747 82.3174 43.4083C83.3478 43.3387 83.1411 42.3332 83.211 41.6344C83.281 40.9577 83.2047 40.2684 83.2524 39.5854C83.3064 38.798 83.3605 38.0012 84.1078 37.217C84.0951 38.8233 84.1905 40.2462 84.8137 41.5648C85.0681 42.1023 85.4625 42.5261 86.1303 42.3616C86.7631 42.2067 86.7249 41.6628 86.7281 41.1537C86.7313 39.2344 87.1351 37.3719 87.4563 35.3451C88.0955 36.104 88.2545 36.9229 88.7442 37.5522C89.1227 38.0391 89.5106 38.6873 90.2325 38.3964C90.9957 38.0897 90.7635 37.3498 90.6172 36.7617C90.0448 34.4787 90.8335 32.3 90.8717 29.8653C91.8638 30.621 91.9815 31.5317 92.3981 32.2716C92.6143 32.6573 92.8337 33.0684 93.3711 32.983C93.9467 32.8913 94.2011 32.4708 94.2806 31.9396C94.3538 31.44 94.2234 30.9499 94.1725 30.4566C93.9881 28.6858 94.4778 27.1111 95.5717 25.6977C96.0837 32.3127 95.4286 38.8107 93.8767 45.2296C93.8736 45.277 93.864 45.3244 93.8545 45.3687C91.0656 44.7995 88.2259 44.8059 85.4434 45.16C82.963 45.4762 80.3427 45.6723 78.2407 47.3576C72.1255 49.8493 66.4715 53.0683 61.9686 57.9726C56.5372 63.8887 52.8134 70.548 53.583 78.9084C54.3525 87.2435 60.4709 92.3881 68.8215 91.8537C80.6957 91.0917 94.9516 80.0878 98.6149 68.8025C99.747 65.3148 100.094 61.7702 98.898 58.2002L98.8916 58.2034ZM95.524 48.4707C97.4765 50.1813 98.4178 52.2556 97.9408 54.8295C97.1394 53.5584 96.3921 52.224 94.5986 52.1355C94.5159 50.8201 95.2124 49.6912 95.524 48.4707ZM96.2204 63.2785C95.7402 64.752 95.3968 66.2666 94.8244 67.7148C91.8606 75.2309 86.7186 81.0269 80.3236 85.8143C77.2453 88.1194 73.8555 89.7889 70.0013 90.4087C62.1785 91.664 56.9156 87.215 56.9601 79.3732C56.9729 77.1819 57.3227 75.0317 58.0064 72.9669C61.2563 63.1709 67.4796 55.7149 76.4058 50.5671C81.3444 47.7181 86.6709 46.0264 92.5284 46.9972C92.7606 47.0351 92.9895 47.0098 93.2058 46.9308C92.9991 47.9173 92.6652 48.8659 92.4299 49.8461C92.4203 50.1592 92.3122 50.4343 92.1786 50.6999C91.5617 50.839 90.8271 50.2224 90.2197 50.428C86.8585 49.8303 83.6372 50.2129 80.5589 51.6201C80.4254 51.5631 80.2759 51.5284 80.1169 51.5094C79.5318 51.4841 79.0071 51.6959 78.511 51.9616C71.6168 55.6453 66.0009 60.6824 62.7287 67.8349C60.9956 71.6262 60.3723 75.7021 62.452 79.7242C64.2551 83.2119 67.5018 84.2238 71.1811 82.6965C74.0145 81.5202 76.5076 79.7432 78.7431 77.6056C84.0919 72.4863 87.981 66.4089 91.0211 59.7149C91.991 57.5805 92.8337 55.3765 94.023 53.3402C94.2202 53.7987 94.6113 54.1592 94.8753 54.5797C96.1282 56.5813 96.9168 58.6493 95.9533 61.0144C95.931 61.1915 95.9692 61.3591 96.0264 61.5267C95.241 62.5385 94.4523 63.5504 93.6669 64.5622L88.4771 68.2998C88.5948 68.4484 88.7092 68.6002 88.8269 68.7488C90.9893 67.8634 92.6652 66.3077 94.2107 64.5686C94.9929 64.0848 95.4254 63.269 96.0646 62.6555C96.2395 62.4879 96.3413 62.4437 96.408 62.4658C96.4653 62.7219 96.443 62.9876 96.2204 63.2785ZM80.2791 53.0777C80.6384 52.8849 80.9882 52.6857 81.0105 52.2398C83.5895 51.4082 86.1748 50.6335 88.9414 50.8264C89.8318 51.19 90.8685 51.1426 91.7144 51.6359C91.6953 51.6865 91.6762 51.737 91.6603 51.7908C88.0987 61.631 82.5242 70.2096 75.2101 77.691C73.8396 79.0918 72.1923 80.0878 70.3766 80.8024C68.141 81.6815 66.5319 81.1945 65.2409 79.1424C63.6954 76.6886 63.4918 74.0578 64.2932 71.2816C65.2599 67.9298 67.0821 65.0808 69.254 62.4057C72.3418 58.6081 75.9352 55.4018 80.2823 53.0746L80.2791 53.0777Z" fill="#FBFFFC"/>
<path id="Vector_2" d="M31.1385 59.5002C31.0908 59.614 31.0272 59.7215 30.9605 59.829C26.4957 67.1428 22.578 74.7886 17.4677 81.7103C17.0003 82.1878 16.5137 82.6463 16.0685 83.1427C13.6326 85.862 11.0918 88.4517 7.60336 89.8588C6.50944 89.8841 5.41552 89.9094 4.3216 89.9347C2.7952 89.2675 2.51536 88.0407 2.76976 86.5545C3.0655 84.8186 3.8446 83.285 4.74772 81.7988C4.97032 81.7609 5.18974 81.7198 5.41234 81.6818C5.77168 81.451 6.28048 81.7103 6.58894 81.3182C7.17088 81.1127 7.74646 80.8882 8.33476 80.7048C10.9996 79.87 13.7948 79.3767 16.2657 78.017C18.3295 76.8787 19.293 74.7854 18.6284 73.2993C17.9225 71.7214 16.2911 71.2851 13.7312 71.9997C13.4927 72.0661 13.2669 72.1799 13.0348 72.2843C12.9935 72.2969 12.9489 72.3159 12.8981 72.3444C8.37292 73.4669 4.72546 75.9586 1.82212 79.5222C-1.01762 83.0036 -0.601038 88.7458 3.52978 90.3205C5.18974 91.1932 6.82108 90.7505 8.44924 90.2098C9.9343 89.7166 11.1236 88.7363 12.3638 87.8478C13.798 86.8201 14.7552 85.2486 16.3134 84.3506C16.342 85.5079 16.2657 86.6778 16.4279 87.8162C16.5996 89.0114 16.943 90.2288 18.568 90.2288C20.6286 91.1553 22.0883 90.0739 23.4684 88.7679C25.5481 86.798 27.3766 84.613 29.0397 82.2889C29.6885 81.3846 30.3181 80.4676 30.9573 79.5569C30.7919 79.44 30.6234 79.323 30.458 79.206C29.927 79.9048 29.3768 80.5846 28.868 81.2992C26.9632 83.9838 24.9725 86.5925 22.419 88.7174C21.341 89.6122 20.1962 90.3426 18.6888 89.7956C18.5298 88.5751 18.8606 87.4589 19.4107 86.3901C23.2044 78.9941 27.8186 72.0724 31.9685 64.8788C33.708 61.8622 35.5619 58.9089 37.2982 56.0378C33.8066 54.9184 32.2547 56.8536 31.1385 59.4939V59.5002ZM12.3861 74.191C12.8472 73.8432 13.4196 73.5333 13.5023 72.8914C13.8457 73.0779 14.2273 72.9609 14.5962 72.9293C15.0827 72.8882 15.6551 72.7143 15.9668 73.2076C16.3134 73.7609 15.9413 74.2669 15.6297 74.7317C15.388 75.0922 15.0764 75.3957 14.7711 75.7024C12.3924 78.1087 9.36508 79.2249 6.2137 80.0882C8.18212 78.0297 10.0965 75.9206 12.3861 74.1878V74.191ZM8.22664 90.1181C8.30614 90.1339 8.38564 90.1592 8.44924 90.2098C8.3761 90.1782 8.29978 90.1466 8.22664 90.1181Z" fill="#FBFFFC"/>
<path id="Vector_3" d="M130.739 78.3835C130.164 77.4823 130.905 75.9804 129.591 75.4143C129.598 75.4017 129.601 75.3891 129.607 75.3796C129.582 74.3709 129.556 73.3622 129.528 72.3567C130.173 71.0413 131.099 69.9535 132.263 69.0618C132.644 68.5116 133.058 67.9804 133.401 67.4081C133.681 66.9464 134.069 66.3678 133.541 65.9124C133.023 65.4634 132.46 65.9346 132.062 66.2445C131.439 66.7283 130.924 67.348 130.364 67.9077C129.401 69.0966 128.752 70.4278 128.542 71.9519C128.38 72.012 128.253 72.1416 128.119 72.2586C126.31 74.3646 124.91 76.8025 122.827 78.6871C119.896 78.9685 118.433 80.9258 117.412 83.3858C117.037 84.2933 117.065 85.3305 116.483 86.1684C115.326 87.1803 114.194 88.2206 113.004 89.1882C112.343 89.7257 111.573 90.3549 110.661 89.8775C109.751 89.4 110.219 88.4609 110.174 87.702C111.087 85.1945 112.464 82.9242 113.85 80.657C115.367 78.1811 116.855 75.6926 118.334 73.1946C118.566 72.8025 119.275 72.2745 118.124 72.0373C116.016 71.6009 114.839 72.0752 113.866 73.8618C112.887 71.5788 112.314 71.2215 110.085 71.8507C109.964 71.8602 109.834 71.9013 109.694 71.9646C104.943 73.1314 101.076 75.7211 97.8199 79.2752C96.8373 80.3503 96.2776 81.691 95.877 83.057C94.9929 86.0704 95.8833 88.7866 98.1252 90.2791C98.2652 90.3802 98.3892 90.4308 98.5037 90.4403C100.224 91.117 101.738 90.8103 103.178 89.3431C104.39 88.1067 105.442 86.7123 106.613 85.4317C106.927 85.0902 107.045 84.2712 107.853 84.6823C107.02 87.2024 107.449 88.815 109.347 90.3044C110.826 91.3478 112.165 90.7565 113.396 89.868C114.385 89.1534 115.316 88.3344 116.175 87.468C116.76 86.8767 116.957 87.2909 117.25 87.6799H117.243C117.476 88.9984 118.223 89.8743 119.504 90.2917C121.39 90.9462 123.279 91.019 125.168 90.298C130.94 89.1123 133.223 84.9985 131.111 79.6135C130.956 79.2183 130.87 78.7946 130.749 78.3835H130.739ZM107.643 82.7566C107.608 82.8167 107.586 82.8767 107.567 82.9368C106.524 83.0538 106.285 84.151 105.675 84.7708C103.687 86.7882 102.161 89.3905 98.9965 89.8617C98.3097 87.449 98.8344 85.2261 100.205 83.1771C102.272 80.091 104.361 77.0428 107.376 74.7092C108.406 73.9124 109.669 73.4033 110.499 72.3535C111.392 72.8563 112.206 73.4412 112.639 74.3962C112.55 74.4594 112.467 74.5321 112.397 74.6333C111.201 77.5677 109.262 80.0689 107.637 82.7534L107.643 82.7566ZM123.12 88.9668C122.735 89.185 122.156 89.3747 122.102 89.9091C121.482 89.302 120.741 89.3937 119.985 89.5739C119.95 89.5897 119.915 89.6087 119.88 89.6245C119.323 88.8056 118.671 88.0814 117.733 87.6609C117.727 87.6609 117.72 87.6609 117.717 87.6609C117.73 87.6514 117.743 87.6451 117.755 87.6356C118.331 85.2704 119.794 83.8475 122.137 83.0538C124.278 82.3266 124.586 81.5297 124.243 79.3922C124.214 79.3416 124.185 79.2942 124.157 79.2467C125.537 77.6878 126.656 75.8981 128.338 74.3266C128.437 75.68 128.326 76.8373 128.405 77.9882C128.472 78.9527 128.157 79.9803 128.606 80.891C128.599 80.9258 128.593 80.9606 128.586 80.9922C127.776 84.3344 126.256 87.1834 123.123 88.97L123.12 88.9668Z" fill="#FBFFFC"/>
<path id="Vector_4" d="M138.88 99.2718C140.486 97.89 139.72 96.9794 138.263 96.2078C137.541 95.9296 136.788 96.1351 136.053 96.0624C135.105 95.9707 134.791 96.1667 134.997 97.2766C135.252 98.6552 135.083 100.103 135.051 101.52C135.042 101.912 134.543 102.522 135.09 102.649C135.722 102.794 136.61 103.209 137.083 102.228C136.536 101.688 136.603 101.106 136.854 100.394C138.012 101.153 138.13 103.326 140.279 102.418C139.79 101.697 139.357 101.036 138.899 100.394C138.626 100.009 138.425 99.6576 138.877 99.2687L138.88 99.2718Z" fill="#FBFFFC"/>
<path id="Vector_5" d="M143.835 68.7108C145.329 68.7361 146.945 67.1646 146.989 65.6405C147.034 64.578 146.531 64.031 145.45 64.0279C143.943 64.0215 142.321 65.5962 142.286 67.0887C142.261 68.1511 142.763 68.695 143.831 68.714L143.835 68.7108Z" fill="#FBFFFC"/>
<path id="Vector_6" d="M157.715 68.6477C158.269 67.8413 159.642 66.8516 158.647 66.0421C157.553 65.1505 156.774 66.6398 156.084 67.4366C154.844 68.869 154.723 70.8642 153.629 72.3757C151.851 74.4595 150.071 76.5433 148.293 78.627C144.963 78.9306 143.389 81.125 142.499 84.0056C142.267 84.7582 142.178 85.5519 141.621 86.1685C141.046 86.7123 140.451 87.2404 139.895 87.8064C138.616 89.1092 137.258 90.2127 135.252 89.9092C134.361 88.9416 134.762 87.9708 135.217 86.978C136.769 83.5788 138.88 80.5021 140.804 77.3179C141.812 75.6452 143.027 74.0769 143.768 72.2492C140.995 71.5567 139.058 72.1512 138.012 74.8895C137.51 76.2049 136.571 77.3496 135.859 78.5891C134.565 80.8468 133.077 83.0096 132.402 85.5772C131.547 88.8309 133.36 90.9621 136.743 90.6364C138.68 90.2949 139.742 88.6633 141.205 87.623C141.57 87.3637 141.796 86.7566 142.369 87.3068L142.397 87.2847C142.896 89.4696 143.857 90.3234 146.15 90.6238C147.145 90.6364 148.15 90.7408 149.136 90.6459C155.48 90.0515 158.564 85.1535 156.297 79.3353C155.779 78.0073 155.298 76.6666 154.799 75.329C154.777 74.3425 154.758 73.3528 154.736 72.3662C155.298 70.782 156.819 69.9536 157.718 68.6413L157.715 68.6477ZM153.89 78.9369C153.693 83.7147 151.715 87.3859 147.263 89.536C147.186 89.5961 147.097 89.6435 147.005 89.6847C146.849 89.5771 146.674 89.5076 146.48 89.4886C144.521 89.2926 143.631 88.1574 143.558 86.2697C143.552 86.121 143.52 85.9756 143.459 85.8428C143.494 85.7922 143.532 85.7479 143.583 85.7068C144.515 84.0815 146.166 83.5313 147.771 82.8483C149.81 81.9819 150.131 81.1725 149.438 79.31C149.412 79.2816 149.39 79.2499 149.368 79.2215C150.846 77.729 151.855 75.8381 153.441 74.3994C153.778 74.9717 153.349 75.8697 153.925 76.344C153.855 77.2073 153.925 78.0737 153.89 78.9369Z" fill="#FBFFFC"/>
<path id="Vector_7" d="M96.707 102.203C95.7212 101.716 96.389 100.54 96.284 99.6734C97.0218 99.5406 97.2126 100.243 97.7246 100.777C97.8645 99.7209 98.0044 98.8798 97.5751 97.5991C97.3112 98.5794 97.0154 99.1169 96.2427 98.8545L96.2808 96.6948C97.4034 96.347 98.2365 96.8466 98.9266 97.8521C99.2796 96.6379 99.1428 96.0055 97.9154 96.1509C97.3589 96.2173 96.796 96.23 96.2395 96.2648C95.5685 96.1667 94.8944 96.0498 94.2902 96.4102C95.1329 97.324 94.6686 98.4276 94.7131 99.4236C94.7608 100.439 94.2902 101.937 94.6113 102.383C95.2346 103.243 96.6783 102.367 97.785 102.601C99.0856 102.88 99.4799 102.235 99.1905 100.922C98.4687 101.672 97.7436 102.715 96.707 102.203Z" fill="#FBFFFC"/>
<path id="Vector_8" d="M44.8761 101.555C44.415 102.143 43.7695 102.453 43.0763 102.254C42.2622 102.023 42.5611 101.242 42.5484 100.666C42.5229 99.5565 42.5929 98.4403 42.5198 97.3336C42.4943 96.9226 43.2098 96.5399 42.6978 96.2901C42.2463 96.0688 41.5594 96.0688 41.0729 96.2427C40.4337 96.4735 41.1619 96.9194 41.111 97.3083C41.0188 98.0387 41.1078 98.7882 41.076 99.5281C41.0347 100.505 40.5354 101.786 40.9806 102.38C41.5912 103.193 42.9554 102.383 43.9889 102.595C45.3913 102.88 45.7697 102.181 45.4772 100.79C45.2355 101.093 45.0542 101.321 44.873 101.552L44.8761 101.555Z" fill="#FBFFFC"/>
<path id="Vector_9" d="M18.6921 96.2556C18.1833 96.1038 17.5695 96.0785 17.0544 96.205C16.3993 96.3663 17.0353 96.7647 17.0321 97.0588C17.0162 98.6018 17.1625 100.167 16.9462 101.682C16.819 102.58 16.9176 102.792 17.7094 102.665C18.708 102.678 18.6412 102.678 18.6094 101.615C18.5617 100.075 18.6253 98.5291 18.638 96.986C18.638 96.7331 19.1468 96.3979 18.6889 96.2588L18.6921 96.2556Z" fill="#FBFFFC"/>
<path id="Vector_10" d="M54.9345 97.6654C54.2413 99.2749 53.548 100.881 52.7594 102.709C53.3382 102.525 54.1904 103.101 54.0537 102.187C53.8152 100.6 54.8773 100.862 55.7295 100.714C56.4641 101.457 56.1684 103.73 58.2894 102.405C57.4626 100.325 56.6358 98.2473 55.7677 96.0718C55.119 96.5904 54.9854 97.1089 54.9345 97.6654ZM55.2493 99.7714C55.208 99.686 55.1826 99.5943 55.1635 99.5026C55.1889 99.5943 55.2207 99.6828 55.2493 99.7714Z" fill="#FBFFFC"/>
<path id="Vector_11" d="M110.925 98.7153C110.187 98.241 109.109 98.007 109.43 96.739C110.68 96.0371 111.256 97.0711 111.955 97.9438C112.159 95.958 111.688 95.6924 109.37 96.2616C107.818 97.5517 107.882 98.6932 109.522 99.86C110.216 100.353 111.402 100.47 111.163 101.77C110.467 102.352 109.77 102.197 109.074 101.764C108.871 101.428 108.839 100.964 107.917 100.565C108.553 101.422 107.497 102.437 108.972 102.608C109.939 103.035 110.887 103.284 111.694 102.298C112.769 100.499 112.613 99.8031 110.925 98.7153Z" fill="#FBFFFC"/>
<path id="Vector_12" d="M125.053 96.2998C124.344 95.5946 123.603 95.7591 122.85 96.2176C120.185 97.4223 120.004 100.61 122.481 102.602C122.535 102.633 122.589 102.662 122.64 102.684C123.378 103.063 124.112 103.139 124.834 102.7C124.904 102.668 124.977 102.624 125.057 102.554C127.756 101.52 127.594 97.1788 125.047 96.3029L125.053 96.2998ZM123.355 102.162C122.831 100.354 122.894 98.548 123.374 96.7456C123.68 97.0523 124.039 97.1662 124.459 97.0808C124.958 98.8009 125.05 100.505 124.284 102.175C123.972 101.928 123.664 101.922 123.355 102.162Z" fill="#FBFFFC"/>
<path id="Vector_13" d="M84.394 99.2878C84.941 98.7566 85.5833 98.1969 85.2304 97.3621C84.9155 96.619 84.2064 96.404 83.4082 96.5937C83.8407 97.2451 83.9139 97.9597 83.8026 98.7091C83.4528 98.6617 83.1379 98.7249 82.8517 98.8672C82.9026 98.0894 82.9471 97.3083 82.5051 96.5969C81.1791 95.9487 80.5717 95.9961 80.6893 96.7076C80.9787 98.4751 80.9819 100.233 80.683 101.985C80.5335 102.858 81.1441 102.706 81.5479 102.649C81.9423 102.595 83.068 103.028 82.3429 101.83C82.4415 101.375 82.1998 100.869 82.5846 100.379C83.6499 101.153 83.8375 103.332 85.8918 102.497C85.6915 101.289 84.1873 100.679 84.394 99.2846V99.2878Z" fill="#FBFFFC"/>
<path id="Vector_14" d="M7.76873 96.1574C7.48571 96.0784 7.15499 96.0973 6.85925 96.1479C6.68435 96.1764 6.41405 96.1859 6.58577 96.5969C7.11683 97.8712 6.18509 98.8515 5.78123 99.9329C5.21519 99.2625 4.82405 98.4183 4.79543 97.6278C4.72865 95.8317 3.79691 95.993 2.55035 96.3092C3.43757 98.51 4.27709 100.603 5.15795 102.788C6.12785 101.922 5.73035 100.765 6.31547 99.9835C7.25675 99.0918 7.02461 97.6467 7.87367 96.7139C8.08991 96.4768 8.04857 96.2302 7.77191 96.1543L7.76873 96.1574Z" fill="#FBFFFC"/>
<path id="Vector_15" d="M29.9174 101.704C29.9747 100.107 30.0192 98.5101 30.0987 96.9164C30.1114 96.6382 30.4071 96.2777 29.927 96.2018C29.4468 96.1259 28.9348 96.1354 28.4546 96.2113C27.949 96.2935 28.302 96.6318 28.3147 96.8943C28.3783 98.3046 28.6263 99.7591 28.3751 101.119C28.0985 102.621 28.5405 102.899 29.8475 102.58C30.3372 102.621 30.8269 102.646 31.3134 102.706C32.8208 102.893 33.2024 102.188 32.9162 100.679C31.9749 101.552 31.3643 103.032 29.9206 101.707L29.9174 101.704Z" fill="#FBFFFC"/>
<path id="Vector_16" d="M151.753 96.2836C151.257 96.2741 150.761 96.2678 150.265 96.2583C148.961 96.1213 148.405 96.584 148.598 97.6465C149.136 97.2828 149.431 96.5366 150.233 96.6662C150.252 98.2599 150.252 99.8567 150.309 101.45C150.325 101.842 149.686 102.317 150.245 102.551C150.71 102.744 151.4 102.728 151.855 102.513C152.376 102.269 151.699 101.855 151.715 101.457C151.785 99.863 151.772 98.2662 151.788 96.6726C152.615 96.5271 152.999 97.2196 153.537 97.8267C153.636 96.6336 153.042 96.1192 151.753 96.2836Z" fill="#FBFFFC"/>
</g>
<defs>
<clipPath id="clip0_85_207">
<rect width="159" height="103" fill="white"/>
</clipPath>
</defs>
</svg>
